<?xml version="1.0" encoding="UTF-8" standalone="no"?>
<svg
   xmlns:dc="http://purl.org/dc/elements/1.1/"
   xmlns:cc="http://creativecommons.org/ns#"
   xmlns:rdf="http://www.w3.org/1999/02/22-rdf-syntax-ns#"
   xmlns:svg="http://www.w3.org/2000/svg"
   xmlns="http://www.w3.org/2000/svg"
   xmlns:sodipodi="http://sodipodi.sourceforge.net/DTD/sodipodi-0.dtd"
   xmlns:inkscape="http://www.inkscape.org/namespaces/inkscape"
   width="154.73717mm"
   height="100.233mm"
   viewBox="0 0 154.73717 100.233"
   version="1.1"
   id="svg2482"
   inkscape:version="1.0.1 (3bc2e813f5, 2020-09-07)"
   sodipodi:docname="0413-ensaio triaxial argila ductil.svg">
  <defs
     id="defs2476">
    <clipPath
       id="clip0">
      <rect
         x="0"
         y="0"
         width="585"
         height="379"
         id="rect3045" />
    </clipPath>
    <clipPath
       id="clip1">
      <rect
         x="0"
         y="0"
         width="583"
         height="377"
         id="rect3048" />
    </clipPath>
    <clipPath
       id="clip2">
      <rect
         x="0"
         y="0"
         width="583"
         height="377"
         id="rect3051" />
    </clipPath>
    <clipPath
       id="clip3">
      <rect
         x="0"
         y="0"
         width="583"
         height="377"
         id="rect3054" />
    </clipPath>
    <clipPath
       id="clip4">
      <rect
         x="0"
         y="0"
         width="583"
         height="377"
         id="rect3057" />
    </clipPath>
    <clipPath
       id="clip5">
      <rect
         x="0"
         y="0"
         width="583"
         height="377"
         id="rect3060" />
    </clipPath>
    <clipPath
       id="clip6">
      <rect
         x="0"
         y="0"
         width="583"
         height="377"
         id="rect3063" />
    </clipPath>
    <clipPath
       id="clip7">
      <rect
         x="0"
         y="0"
         width="583"
         height="377"
         id="rect3066" />
    </clipPath>
    <clipPath
       id="clip8">
      <rect
         x="0"
         y="0"
         width="583"
         height="377"
         id="rect3069" />
    </clipPath>
    <clipPath
       id="clip9">
      <rect
         x="32"
         y="76"
         width="349"
         height="257"
         id="rect3072" />
    </clipPath>
    <clipPath
       id="clip10">
      <rect
         x="32"
         y="76"
         width="349"
         height="257"
         id="rect3075" />
    </clipPath>
    <clipPath
       id="clip11">
      <rect
         x="0"
         y="0"
         width="583"
         height="377"
         id="rect3078" />
    </clipPath>
    <clipPath
       id="clip12">
      <rect
         x="0"
         y="0"
         width="583"
         height="377"
         id="rect3081" />
    </clipPath>
    <clipPath
       id="clip13">
      <rect
         x="0"
         y="0"
         width="583"
         height="377"
         id="rect3084" />
    </clipPath>
    <clipPath
       id="clip14">
      <rect
         x="0"
         y="0"
         width="583"
         height="377"
         id="rect3087" />
    </clipPath>
    <clipPath
       id="clip15">
      <rect
         x="0"
         y="0"
         width="583"
         height="377"
         id="rect3090" />
    </clipPath>
    <clipPath
       id="clip16">
      <rect
         x="0"
         y="0"
         width="583"
         height="377"
         id="rect3093" />
    </clipPath>
    <clipPath
       id="clip17">
      <rect
         x="0"
         y="0"
         width="583"
         height="377"
         id="rect3096" />
    </clipPath>
    <clipPath
       id="clip18">
      <rect
         x="0"
         y="0"
         width="583"
         height="377"
         id="rect3099" />
    </clipPath>
    <clipPath
       id="clip19">
      <rect
         x="0"
         y="0"
         width="583"
         height="377"
         id="rect3102" />
    </clipPath>
    <clipPath
       id="clip20">
      <rect
         x="0"
         y="0"
         width="583"
         height="377"
         id="rect3105" />
    </clipPath>
    <clipPath
       id="clip21">
      <rect
         x="0"
         y="0"
         width="583"
         height="377"
         id="rect3108" />
    </clipPath>
    <clipPath
       id="clip22">
      <rect
         x="0"
         y="0"
         width="583"
         height="377"
         id="rect3111" />
    </clipPath>
    <clipPath
       id="clip23">
      <rect
         x="0"
         y="0"
         width="583"
         height="377"
         id="rect3114" />
    </clipPath>
    <clipPath
       id="clip24">
      <rect
         x="0"
         y="0"
         width="583"
         height="377"
         id="rect3117" />
    </clipPath>
    <clipPath
       id="clip25">
      <rect
         x="0"
         y="0"
         width="583"
         height="377"
         id="rect3120" />
    </clipPath>
    <clipPath
       id="clip26">
      <rect
         x="0"
         y="0"
         width="583"
         height="377"
         id="rect3123" />
    </clipPath>
    <clipPath
       id="clip27">
      <rect
         x="0"
         y="0"
         width="583"
         height="377"
         id="rect3126" />
    </clipPath>
    <clipPath
       id="clip28">
      <rect
         x="0"
         y="0"
         width="583"
         height="377"
         id="rect3129" />
    </clipPath>
    <clipPath
       id="clip29">
      <rect
         x="0"
         y="0"
         width="583"
         height="377"
         id="rect3132" />
    </clipPath>
    <clipPath
       id="clip30">
      <rect
         x="0"
         y="0"
         width="583"
         height="377"
         id="rect3135" />
    </clipPath>
    <clipPath
       id="clip31">
      <rect
         x="0"
         y="0"
         width="583"
         height="377"
         id="rect3138" />
    </clipPath>
    <clipPath
       id="clip32">
      <rect
         x="0"
         y="0"
         width="583"
         height="377"
         id="rect3141" />
    </clipPath>
    <clipPath
       id="clip33">
      <rect
         x="0"
         y="0"
         width="583"
         height="377"
         id="rect3144" />
    </clipPath>
    <clipPath
       id="clip34">
      <rect
         x="0"
         y="0"
         width="583"
         height="377"
         id="rect3147" />
    </clipPath>
    <clipPath
       id="clip35">
      <rect
         x="0"
         y="0"
         width="584"
         height="378"
         id="rect3150" />
    </clipPath>
    <clipPath
       id="clip36">
      <rect
         x="132"
         y="55"
         width="443"
         height="31"
         id="rect3153" />
    </clipPath>
    <clipPath
       id="clip37">
      <rect
         x="0"
         y="0"
         width="584"
         height="378"
         id="rect3156" />
    </clipPath>
    <clipPath
       id="clip38">
      <rect
         x="132"
         y="55"
         width="443"
         height="31"
         id="rect3159" />
    </clipPath>
    <clipPath
       id="clip39">
      <rect
         x="0"
         y="0"
         width="584"
         height="378"
         id="rect3162" />
    </clipPath>
    <clipPath
       id="clip40">
      <rect
         x="0"
         y="0"
         width="584"
         height="378"
         id="rect3165" />
    </clipPath>
    <clipPath
       id="clip41">
      <rect
         x="0"
         y="0"
         width="584"
         height="378"
         id="rect3168" />
    </clipPath>
    <clipPath
       id="clip42">
      <rect
         x="0"
         y="0"
         width="584"
         height="378"
         id="rect3171" />
    </clipPath>
    <clipPath
       id="clip43">
      <rect
         x="0"
         y="0"
         width="584"
         height="378"
         id="rect3174" />
    </clipPath>
    <clipPath
       id="clip44">
      <rect
         x="0"
         y="0"
         width="584"
         height="378"
         id="rect3177" />
    </clipPath>
    <clipPath
       id="clip45">
      <rect
         x="0"
         y="0"
         width="584"
         height="378"
         id="rect3180" />
    </clipPath>
    <clipPath
       id="clip46">
      <rect
         x="0"
         y="0"
         width="584"
         height="378"
         id="rect3183" />
    </clipPath>
    <clipPath
       id="clip47">
      <rect
         x="0"
         y="0"
         width="584"
         height="378"
         id="rect3186" />
    </clipPath>
    <clipPath
       id="clip48">
      <rect
         x="0"
         y="0"
         width="584"
         height="378"
         id="rect3189" />
    </clipPath>
    <clipPath
       id="clip49">
      <rect
         x="0"
         y="0"
         width="584"
         height="378"
         id="rect3192" />
    </clipPath>
    <clipPath
       id="clip50">
      <rect
         x="0"
         y="0"
         width="584"
         height="378"
         id="rect3195" />
    </clipPath>
    <clipPath
       id="clip51">
      <rect
         x="0"
         y="0"
         width="584"
         height="378"
         id="rect3198" />
    </clipPath>
    <clipPath
       id="clip52">
      <rect
         x="0"
         y="0"
         width="584"
         height="378"
         id="rect3201" />
    </clipPath>
    <clipPath
       id="clip53">
      <rect
         x="0"
         y="0"
         width="584"
         height="378"
         id="rect3204" />
    </clipPath>
    <clipPath
       id="clip54">
      <rect
         x="0"
         y="0"
         width="584"
         height="378"
         id="rect3207" />
    </clipPath>
    <clipPath
       id="clip55">
      <rect
         x="0"
         y="0"
         width="584"
         height="378"
         id="rect3210" />
    </clipPath>
    <clipPath
       id="clip56">
      <rect
         x="0"
         y="0"
         width="584"
         height="378"
         id="rect3213" />
    </clipPath>
    <clipPath
       id="clip57">
      <rect
         x="0"
         y="0"
         width="584"
         height="378"
         id="rect3216" />
    </clipPath>
    <clipPath
       id="clip58">
      <rect
         x="0"
         y="0"
         width="584"
         height="378"
         id="rect3219" />
    </clipPath>
    <clipPath
       id="clip59">
      <rect
         x="0"
         y="0"
         width="584"
         height="378"
         id="rect3222" />
    </clipPath>
    <clipPath
       id="clip60">
      <rect
         x="0"
         y="0"
         width="584"
         height="378"
         id="rect3225" />
    </clipPath>
    <clipPath
       id="clip61">
      <rect
         x="0"
         y="0"
         width="584"
         height="378"
         id="rect3228" />
    </clipPath>
    <clipPath
       id="clip62">
      <rect
         x="0"
         y="0"
         width="584"
         height="378"
         id="rect3231" />
    </clipPath>
    <clipPath
       id="clip63">
      <rect
         x="0"
         y="0"
         width="584"
         height="378"
         id="rect3234" />
    </clipPath>
    <clipPath
       id="clip64">
      <rect
         x="0"
         y="0"
         width="584"
         height="378"
         id="rect3237" />
    </clipPath>
    <clipPath
       id="clip65">
      <rect
         x="0"
         y="0"
         width="584"
         height="378"
         id="rect3240" />
    </clipPath>
    <clipPath
       id="clip66">
      <rect
         x="0"
         y="0"
         width="584"
         height="378"
         id="rect3243" />
    </clipPath>
    <clipPath
       id="clip67">
      <rect
         x="0"
         y="0"
         width="584"
         height="378"
         id="rect3246" />
    </clipPath>
    <clipPath
       id="clip68">
      <rect
         x="0"
         y="0"
         width="584"
         height="378"
         id="rect3249" />
    </clipPath>
    <clipPath
       id="clip69">
      <rect
         x="0"
         y="0"
         width="584"
         height="378"
         id="rect3252" />
    </clipPath>
    <clipPath
       id="clip70">
      <rect
         x="0"
         y="0"
         width="584"
         height="378"
         id="rect3255" />
    </clipPath>
    <clipPath
       id="clip71">
      <rect
         x="0"
         y="0"
         width="584"
         height="378"
         id="rect3258" />
    </clipPath>
    <clipPath
       id="clip72">
      <rect
         x="0"
         y="0"
         width="584"
         height="378"
         id="rect3261" />
    </clipPath>
    <clipPath
       id="clip73">
      <rect
         x="0"
         y="0"
         width="584"
         height="378"
         id="rect3264" />
    </clipPath>
    <clipPath
       id="clip74">
      <rect
         x="0"
         y="0"
         width="584"
         height="378"
         id="rect3267" />
    </clipPath>
    <clipPath
       id="clip75">
      <rect
         x="0"
         y="0"
         width="584"
         height="378"
         id="rect3270" />
    </clipPath>
    <clipPath
       id="clip76">
      <rect
         x="88"
         y="222"
         width="153"
         height="40"
         id="rect3273" />
    </clipPath>
    <clipPath
       id="clip77">
      <rect
         x="0"
         y="0"
         width="584"
         height="378"
         id="rect3276" />
    </clipPath>
    <clipPath
       id="clip78">
      <rect
         x="0"
         y="0"
         width="584"
         height="378"
         id="rect3279" />
    </clipPath>
    <clipPath
       id="clip79">
      <rect
         x="0"
         y="0"
         width="584"
         height="378"
         id="rect3282" />
    </clipPath>
    <clipPath
       id="clip80">
      <rect
         x="0"
         y="0"
         width="584"
         height="378"
         id="rect3285" />
    </clipPath>
  </defs>
  <sodipodi:namedview
     id="base"
     pagecolor="#ffffff"
     bordercolor="#666666"
     borderopacity="1.0"
     inkscape:pageopacity="0.0"
     inkscape:pageshadow="2"
     inkscape:zoom="1.1317415"
     inkscape:cx="249.25235"
     inkscape:cy="274.39522"
     inkscape:document-units="mm"
     inkscape:current-layer="layer1"
     inkscape:document-rotation="0"
     showgrid="false"
     inkscape:window-width="1512"
     inkscape:window-height="1040"
     inkscape:window-x="156"
     inkscape:window-y="0"
     inkscape:window-maximized="0" />
  <metadata
     id="metadata2479">
    <rdf:RDF>
      <cc:Work
         rdf:about="">
        <dc:format>image/svg+xml</dc:format>
        <dc:type
           rdf:resource="http://purl.org/dc/dcmitype/StillImage" />
        <dc:title></dc:title>
      </cc:Work>
    </rdf:RDF>
  </metadata>
  <g
     inkscape:label="Layer 1"
     inkscape:groupmode="layer"
     id="layer1"
     transform="translate(-100.28023,14.586738)">
    <g
       clip-path="url(#clip0)"
       id="g3608"
       transform="matrix(0.26458333,0,0,0.26458333,100.28023,-14.586738)">
      <rect
         x="0"
         y="0"
         width="584"
         height="378"
         fill="#ffffff"
         id="rect3290" />
      <g
         clip-path="url(#clip1)"
         id="g3294">
        <path
           d="M 32.5001,204.5 H 380.5 M 32.5001,76.5001 H 380.5"
           stroke="#000000"
           stroke-width="0.666667"
           stroke-miterlimit="8"
           fill="none"
           id="path3292" />
      </g>
      <g
         clip-path="url(#clip2)"
         id="g3298">
        <path
           d="M 61.5001,76.5001 V 332.5 m 29,-255.9999 V 332.5 M 119.5,76.5001 V 332.5 m 29,-255.9999 V 332.5 m 29,-255.9999 V 332.5 m 29,-255.9999 V 332.5 m 29,-255.9999 V 332.5 m 29,-255.9999 V 332.5 m 29,-255.9999 V 332.5 m 29,-255.9999 V 332.5 m 29,-255.9999 V 332.5 m 29,-255.9999 V 332.5"
           stroke="#a5a5a5"
           stroke-width="0.666667"
           stroke-linejoin="round"
           stroke-miterlimit="10"
           fill="none"
           id="path3296" />
      </g>
      <g
         clip-path="url(#clip3)"
         id="g3302">
        <path
           d="M 0,0 1.04987e-4,256"
           stroke="#000000"
           stroke-width="0.666667"
           stroke-miterlimit="8"
           fill="none"
           fill-rule="evenodd"
           transform="matrix(1,0,0,-1,380.5,332.5)"
           id="path3300" />
      </g>
      <g
         clip-path="url(#clip4)"
         id="g3306">
        <path
           d="m 380.5,332.5 h 3 m -3,-13 h 3 m -3,-13 h 3 m -3,-12 h 3 m -3,-13 h 3 m -3,-13 h 3 m -3,-13 h 3 m -3,-12 h 3 m -3,-13 h 3 m -3,-13 h 3 m -3,-13 h 3 m -3,-13 h 3 m -3,-12 h 3 m -3,-13 h 3 m -3,-13 h 3 m -3,-13 h 3 m -3,-13 h 3 m -3,-12 h 3 m -3,-13 h 3 m -3,-12.9999 h 3 m -3,-13 h 3 m -3,255.9999 h 5 m -5,-26 h 5 m -5,-25 h 5 m -5,-26 h 5 m -5,-25 h 5 m -5,-26 h 5 m -5,-25 h 5 m -5,-26 h 5 m -5,-26 h 5 m -5,-25 h 5 m -5,-25.9999 h 5"
           stroke="#000000"
           stroke-width="0.666667"
           stroke-miterlimit="8"
           fill="none"
           id="path3304" />
      </g>
      <g
         clip-path="url(#clip5)"
         id="g3310">
        <path
           d="M 0,0 1.04987e-4,256"
           stroke="#000000"
           stroke-width="0.666667"
           stroke-miterlimit="8"
           fill="none"
           fill-rule="evenodd"
           transform="matrix(1,0,0,-1,32.5001,332.5)"
           id="path3308" />
      </g>
      <g
         clip-path="url(#clip6)"
         id="g3314">
        <path
           d="m 29.5001,332.5 h 3 m -3,-13 h 3 m -3,-13 h 3 m -3,-12 h 3 m -3,-13 h 3 m -3,-13 h 3 m -3,-13 h 3 m -3,-12 h 3 m -3,-13 h 3 m -3,-13 h 3 m -3,-13 h 3 m -3,-13 h 3 m -3,-12 h 3 m -3,-13 h 3 m -3,-13 h 3 m -3,-13 h 3 m -3,-13 h 3 m -3,-12 h 3 m -3,-13 h 3 m -3,-12.9999 h 3 m -3,-13 h 3 m -4,255.9999 h 4 m -4,-128 h 4 m -4,-127.9999 h 4"
           stroke="#000000"
           stroke-width="0.666667"
           stroke-miterlimit="8"
           fill="none"
           id="path3312" />
      </g>
      <g
         clip-path="url(#clip7)"
         id="g3318">
        <path
           d="M 32.5001,332.5 H 380.5"
           stroke="#000000"
           stroke-width="0.666667"
           stroke-miterlimit="8"
           fill="none"
           fill-rule="evenodd"
           id="path3316" />
      </g>
      <g
         clip-path="url(#clip8)"
         id="g3322">
        <path
           d="m 32.5001,332.5 v 3 m 29,-3 v 3 m 29,-3 v 3 m 28.9999,-3 v 3 m 29,-3 v 3 m 29,-3 v 3 m 29,-3 v 3 m 29,-3 v 3 m 29,-3 v 3 m 29,-3 v 3 m 29,-3 v 3 m 29,-3 v 3 m 29,-3 v 3 m -347.9999,-3 v 4 m 58,-4 v 4 m 57.9999,-4 v 4 m 58,-4 v 4 m 58,-4 v 4 m 58,-4 v 4 m 58,-4 v 4"
           stroke="#000000"
           stroke-width="0.666667"
           stroke-miterlimit="8"
           fill="none"
           id="path3320" />
      </g>
      <g
         clip-path="url(#clip9)"
         id="g3326">
        <path
           d="m 33,331 c 1.4353,-21.162 4.0543,-56.88 4.3061,-63.485 0.2518,-6.605 -3.0064,26.747 -2.7954,23.856 0.2109,-2.891 2.8711,-31.837 4.0611,-41.202 0.9642,-7.589 1.9292,-10.981 3.0781,-14.987 1.4177,-4.942 5.0803,-13.548 5.4284,-14.67 0.3481,-1.121 -3.8833,9.289 -3.3397,7.942 0.5435,-1.348 4.6687,-11.857 6.6009,-16.028 1.9321,-4.171 3.4351,-6.19 4.9922,-8.998 1.557,-2.808 2.8184,-5.536 4.3503,-7.85 1.5318,-2.314 3.1757,-4.12 4.8411,-6.036 1.6652,-1.915 3.2812,-3.594 5.1504,-5.457 1.8691,-1.863 3.9399,-3.967 6.0642,-5.718 2.1243,-1.751 4.4536,-3.302 6.6817,-4.786 2.2279,-1.484 4.4558,-2.975 6.6863,-4.116 2.2303,-1.141 4.4645,-1.78 6.6963,-2.729 2.2318,-0.95 4.462,-2.154 6.695,-2.968 2.232,-0.814 4.468,-1.265 6.702,-1.916 2.234,-0.65 4.467,-1.448 6.701,-1.987 2.235,-0.539 4.471,-0.848 6.707,-1.246 2.236,-0.398 4.472,-0.767 6.708,-1.142 2.236,-0.376 4.471,-0.85 6.708,-1.111 2.237,-0.261 4.475,-0.268 6.713,-0.456 2.237,-0.188 4.473,-0.524 6.711,-0.672 2.237,-0.148 4.475,-0.197 6.714,-0.217 2.238,-0.021 4.477,0.018 6.716,0.093 2.24,0.075 4.479,0.146 6.719,0.357 2.24,0.211 4.481,0.481 6.722,0.907 2.242,0.426 4.485,1.015 6.728,1.648 2.243,0.633 4.487,1.322 6.731,2.151 2.245,0.828 4.489,1.621 6.736,2.82 2.247,1.199 4.548,2.694 6.747,4.375 2.2,1.681 4.301,3.763 6.452,5.711 2.151,1.949 4.507,4.185 6.454,5.979 1.946,1.794 3.436,2.935 5.223,4.785 1.788,1.851 3.67,4.084 5.503,6.319 1.833,2.235 3.405,4.481 5.497,7.091 2.092,2.611 3.714,5.857 7.055,8.572 3.341,2.716 9.704,6.248 12.99,7.722 3.111,1.396 4.603,0.806 6.724,1.123 2.241,0.334 4.482,0.588 6.722,0.882 2.241,0.295 4.483,0.705 6.723,0.883 2.24,0.179 4.42,0.032 6.717,0.19 2.296,0.157 4.82,0.553 7.06,0.756 2.24,0.203 4.197,0.319 6.38,0.459 2.183,0.14 4.479,0.21 6.719,0.381 2.24,0.171 4.481,0.489 6.72,0.644 2.24,0.154 4.478,0.134 6.718,0.285 2.24,0.15 4.48,0.425 6.721,0.619 2.24,0.195 4.478,0.238 6.719,0.548 0.533,0.074 6.508,-2.11 6.726,1.314 0.917,14.415 -1.214,72.049 -1.221,85.178 -0.002,3.256 1.078,-5.876 1.175,-6.406"
           stroke="#000000"
           stroke-width="2"
           stroke-linecap="round"
           stroke-linejoin="round"
           stroke-miterlimit="10"
           fill="none"
           id="path3324" />
      </g>
      <g
         clip-path="url(#clip10)"
         id="g3330">
        <path
           d="m 35,211.577 c 3.6744,2.86 6.9809,5.986 11.0233,8.579 4.0424,2.593 10.1075,5.55 13.2307,6.98 2.6072,1.193 3.4651,1.169 5.5076,1.598 2.4463,0.514 6.8272,1.112 9.1708,1.484 2.3436,0.372 2.6502,0.548 4.8909,0.747 2.2405,0.198 6.3636,0.331 8.5527,0.443 2.1891,0.113 2.3412,0.048 4.5817,0.23 2.2404,0.183 6.4473,0.647 8.8613,0.865 2.414,0.218 3.372,0.497 5.621,0.444 2.249,-0.053 5.513,-0.552 7.873,-0.763 2.359,-0.212 4.058,-0.31 6.286,-0.505 2.228,-0.196 4.603,-0.332 7.079,-0.666 2.476,-0.333 5.54,-0.969 7.777,-1.336 2.236,-0.367 3.613,-0.528 5.642,-0.866 2.03,-0.337 4.299,-0.685 6.535,-1.16 2.236,-0.474 4.616,-1.061 6.88,-1.687 2.264,-0.627 4.52,-1.317 6.702,-2.073 2.183,-0.757 3.804,-1.306 6.395,-2.468 2.591,-1.162 6.481,-2.99 9.153,-4.504 2.671,-1.515 4.999,-3.31 6.878,-4.582 1.878,-1.273 2.86,-2.024 4.394,-3.054 1.534,-1.03 3.021,-2.233 4.809,-3.127 1.787,-0.893 3.754,-1.286 5.914,-2.234 2.161,-0.949 4.573,-2.145 7.051,-3.454 2.478,-1.309 5.154,-3.015 7.815,-4.399 2.661,-1.385 4.832,-2.469 8.15,-3.91 3.319,-1.44 8.771,-3.561 11.761,-4.733 2.99,-1.173 3.729,-1.42 6.18,-2.301 2.451,-0.882 6.159,-2.257 8.528,-2.988 2.37,-0.731 3.455,-0.769 5.69,-1.399 2.235,-0.63 5.343,-1.741 7.718,-2.38 2.375,-0.639 4.297,-1.007 6.533,-1.453 2.236,-0.447 4.435,-0.685 6.883,-1.227 2.447,-0.543 5.567,-1.452 7.802,-2.03 2.235,-0.578 3.471,-0.913 5.608,-1.439 2.137,-0.526 4.978,-1.23 7.214,-1.717 2.236,-0.486 3.867,-0.63 6.2,-1.202 2.333,-0.572 5.566,-1.557 7.801,-2.23 2.234,-0.674 3.046,-0.986 5.605,-1.812 2.559,-0.827 6.998,-2.064 9.748,-3.147 2.751,-1.082 4.929,-2.497 6.755,-3.347 1.826,-0.85 2.801,-1.169 4.201,-1.754"
           stroke="#000000"
           stroke-width="2"
           stroke-linecap="round"
           stroke-linejoin="round"
           stroke-miterlimit="10"
           stroke-dasharray="6, 8"
           fill="none"
           id="path3328" />
      </g>
      <g
         clip-path="url(#clip11)"
         id="g3334">
        <text
           font-family="Calibri, Calibri_MSFontService, sans-serif"
           font-weight="400"
           font-size="13px"
           transform="translate(393.18,337)"
           id="text3332">-1</text>
      </g>
      <g
         clip-path="url(#clip12)"
         id="g3338">
        <text
           font-family="Calibri, Calibri_MSFontService, sans-serif"
           font-weight="400"
           font-size="13px"
           transform="translate(393.18,311)"
           id="text3336">-0,8</text>
      </g>
      <g
         clip-path="url(#clip13)"
         id="g3342">
        <text
           font-family="Calibri, Calibri_MSFontService, sans-serif"
           font-weight="400"
           font-size="13px"
           transform="translate(393.18,286)"
           id="text3340">-0,6</text>
      </g>
      <g
         clip-path="url(#clip14)"
         id="g3346">
        <text
           font-family="Calibri, Calibri_MSFontService, sans-serif"
           font-weight="400"
           font-size="13px"
           transform="translate(393.18,260)"
           id="text3344">-0,4</text>
      </g>
      <g
         clip-path="url(#clip15)"
         id="g3350">
        <text
           font-family="Calibri, Calibri_MSFontService, sans-serif"
           font-weight="400"
           font-size="13px"
           transform="translate(393.18,234)"
           id="text3348">-0,2</text>
      </g>
      <g
         clip-path="url(#clip16)"
         id="g3354">
        <text
           font-family="Calibri, Calibri_MSFontService, sans-serif"
           font-weight="400"
           font-size="13px"
           transform="translate(393.18,209)"
           id="text3352">0</text>
      </g>
      <g
         clip-path="url(#clip17)"
         id="g3358">
        <text
           font-family="Calibri, Calibri_MSFontService, sans-serif"
           font-weight="400"
           font-size="13px"
           transform="translate(393.18,183)"
           id="text3356">0,2</text>
      </g>
      <g
         clip-path="url(#clip18)"
         id="g3362">
        <text
           font-family="Calibri, Calibri_MSFontService, sans-serif"
           font-weight="400"
           font-size="13px"
           transform="translate(393.18,158)"
           id="text3360">0,4</text>
      </g>
      <g
         clip-path="url(#clip19)"
         id="g3366">
        <text
           font-family="Calibri, Calibri_MSFontService, sans-serif"
           font-weight="400"
           font-size="13px"
           transform="translate(393.18,132)"
           id="text3364">0,6</text>
      </g>
      <g
         clip-path="url(#clip20)"
         id="g3370">
        <text
           font-family="Calibri, Calibri_MSFontService, sans-serif"
           font-weight="400"
           font-size="13px"
           transform="translate(393.18,106)"
           id="text3368">0,8</text>
      </g>
      <g
         clip-path="url(#clip21)"
         id="g3374">
        <text
           font-family="Calibri, Calibri_MSFontService, sans-serif"
           font-weight="400"
           font-size="13px"
           transform="translate(393.18,81)"
           id="text3372">1</text>
      </g>
      <g
         clip-path="url(#clip22)"
         id="g3378">
        <text
           font-family="Calibri, Calibri_MSFontService, sans-serif"
           font-weight="400"
           font-size="13px"
           transform="translate(13.676,337)"
           id="text3376">0</text>
      </g>
      <g
         clip-path="url(#clip23)"
         id="g3382">
        <text
           font-family="Calibri, Calibri_MSFontService, sans-serif"
           font-weight="400"
           font-size="13px"
           transform="translate(13.676,209)"
           id="text3380">2</text>
      </g>
      <g
         clip-path="url(#clip24)"
         id="g3386">
        <text
           font-family="Calibri, Calibri_MSFontService, sans-serif"
           font-weight="400"
           font-size="13px"
           transform="translate(13.676,81)"
           id="text3384">4</text>
      </g>
      <g
         clip-path="url(#clip25)"
         id="g3390">
        <text
           font-family="Calibri, Calibri_MSFontService, sans-serif"
           font-weight="400"
           font-size="13px"
           transform="translate(29.4238,354)"
           id="text3388">0</text>
      </g>
      <g
         clip-path="url(#clip26)"
         id="g3394">
        <text
           font-family="Calibri, Calibri_MSFontService, sans-serif"
           font-weight="400"
           font-size="13px"
           transform="translate(87.4253,354)"
           id="text3392">2</text>
      </g>
      <g
         clip-path="url(#clip27)"
         id="g3398">
        <text
           font-family="Calibri, Calibri_MSFontService, sans-serif"
           font-weight="400"
           font-size="13px"
           transform="translate(145.427,354)"
           id="text3396">4</text>
      </g>
      <g
         clip-path="url(#clip28)"
         id="g3402">
        <text
           font-family="Calibri, Calibri_MSFontService, sans-serif"
           font-weight="400"
           font-size="13px"
           transform="translate(203.428,354)"
           id="text3400">6</text>
      </g>
      <g
         clip-path="url(#clip29)"
         id="g3406">
        <text
           font-family="Calibri, Calibri_MSFontService, sans-serif"
           font-weight="400"
           font-size="13px"
           transform="translate(261.43,354)"
           id="text3404">8</text>
      </g>
      <g
         clip-path="url(#clip30)"
         id="g3410">
        <text
           font-family="Calibri, Calibri_MSFontService, sans-serif"
           font-weight="400"
           font-size="13px"
           transform="translate(316.051,354)"
           id="text3408">10</text>
      </g>
      <g
         clip-path="url(#clip31)"
         id="g3414">
        <text
           font-family="Calibri, Calibri_MSFontService, sans-serif"
           font-weight="400"
           font-size="13px"
           transform="translate(374.052,354)"
           id="text3412">12</text>
      </g>
      <g
         clip-path="url(#clip32)"
         id="g3418">
        <text
           font-family="'Times New Roman', 'Times New Roman_MSFontService', sans-serif"
           font-weight="700"
           font-size="21px"
           transform="translate(101.313,30)"
           id="text3416">ENSAIO TRIAXIAL</text>
      </g>
      <g
         clip-path="url(#clip33)"
         id="g3422">
        <text
           font-family="'Times New Roman', 'Times New Roman_MSFontService', sans-serif"
           font-weight="700"
           font-size="21px"
           transform="translate(298.893,30)"
           id="text3420">-</text>
      </g>
      <g
         clip-path="url(#clip34)"
         id="g3426">
        <text
           font-family="'Times New Roman', 'Times New Roman_MSFontService', sans-serif"
           font-weight="700"
           font-size="21px"
           transform="translate(310.153,30)"
           id="text3424">ARGILA DÚCTIL</text>
      </g>
      <rect
         x="0.50005299"
         y="0.50005299"
         width="584"
         height="378"
         stroke="#898989"
         stroke-width="0.666667"
         stroke-linejoin="round"
         stroke-miterlimit="10"
         fill="none"
         id="rect3428" />
      <g
         clip-path="url(#clip35)"
         id="g3434">
        <g
           clip-path="url(#clip36)"
           id="g3432">
          <text
             font-family="'Times New Roman', 'Times New Roman_MSFontService', sans-serif"
             font-weight="400"
             font-size="15px"
             transform="translate(322.133,74)"
             id="text3430">Volume</text>
        </g>
      </g>
      <g
         clip-path="url(#clip37)"
         id="g3440">
        <g
           clip-path="url(#clip38)"
           id="g3438">
          <text
             font-family="'Times New Roman', 'Times New Roman_MSFontService', sans-serif"
             font-weight="400"
             font-size="15px"
             transform="translate(373.046,74)"
             id="text3436">%</text>
        </g>
      </g>
      <g
         clip-path="url(#clip39)"
         id="g3444">
        <text
           font-family="'Times New Roman', 'Times New Roman_MSFontService', sans-serif"
           font-weight="400"
           font-size="15px"
           transform="translate(33.5705,73)"
           id="text3442">Desviador MPa</text>
      </g>
      <g
         clip-path="url(#clip40)"
         id="g3448">
        <text
           font-family="'Times New Roman', 'Times New Roman_MSFontService', sans-serif"
           font-weight="400"
           font-size="15px"
           transform="translate(309.205,369)"
           id="text3446">Deformação %</text>
      </g>
      <g
         clip-path="url(#clip41)"
         id="g3452">
        <text
           font-family="'Times New Roman', 'Times New Roman_MSFontService', sans-serif"
           font-weight="400"
           font-size="12px"
           transform="translate(456.775,69)"
           id="text3450">Argila</text>
      </g>
      <g
         clip-path="url(#clip42)"
         id="g3456">
        <text
           font-family="'Times New Roman', 'Times New Roman_MSFontService', sans-serif"
           font-weight="400"
           font-size="12px"
           transform="translate(490.428,69)"
           id="text3454">de Boom</text>
      </g>
      <g
         clip-path="url(#clip43)"
         id="g3460">
        <path
           d="m 456.828,69.9979 h 25.667 25.667 25.666 v 1 h -25.666 -25.667 -25.667 z"
           fill-rule="evenodd"
           id="path3458" />
      </g>
      <g
         clip-path="url(#clip44)"
         id="g3464">
        <text
           font-family="'Times New Roman', 'Times New Roman_MSFontService', sans-serif"
           font-weight="400"
           font-size="12px"
           transform="translate(458.615,83)"
           id="text3462">Ensaio Triaxial</text>
      </g>
      <g
         clip-path="url(#clip45)"
         id="g3468">
        <text
           font-family="'Times New Roman', 'Times New Roman_MSFontService', sans-serif"
           font-weight="400"
           font-size="12px"
           transform="translate(474.435,97)"
           id="text3466">20.06.86</text>
      </g>
      <g
         clip-path="url(#clip46)"
         id="g3472">
        <text
           font-family="'Times New Roman', 'Times New Roman_MSFontService', sans-serif"
           font-weight="400"
           font-size="12px"
           transform="translate(456.555,111)"
           id="text3470">Cota = 243,40m</text>
      </g>
      <g
         clip-path="url(#clip47)"
         id="g3476">
        <text
           font-family="'Times New Roman', 'Times New Roman_MSFontService', sans-serif"
           font-style="italic"
           font-weight="400"
           font-size="12px"
           transform="translate(444.835,124)"
           id="text3474">H</text>
      </g>
      <g
         clip-path="url(#clip48)"
         id="g3480">
        <text
           font-family="'Times New Roman', 'Times New Roman_MSFontService', sans-serif"
           font-weight="400"
           font-size="12px"
           transform="translate(453.502,124)"
           id="text3478">=71mm</text>
      </g>
      <g
         clip-path="url(#clip49)"
         id="g3484">
        <text
           font-family="'Times New Roman', 'Times New Roman_MSFontService', sans-serif"
           font-style="italic"
           font-weight="400"
           font-size="12px"
           transform="translate(493.935,124)"
           id="text3482">D</text>
      </g>
      <g
         clip-path="url(#clip50)"
         id="g3488">
        <text
           font-family="'Times New Roman', 'Times New Roman_MSFontService', sans-serif"
           font-weight="400"
           font-size="12px"
           transform="translate(505.602,124)"
           id="text3486">= 36mm</text>
      </g>
      <g
         clip-path="url(#clip51)"
         id="g3492">
        <text
           font-family="'Times New Roman', 'Times New Roman_MSFontService', sans-serif"
           font-style="italic"
           font-weight="400"
           font-size="12px"
           transform="translate(447.175,138)"
           id="text3490">W</text>
      </g>
      <g
         clip-path="url(#clip52)"
         id="g3496">
        <text
           font-family="'Times New Roman', 'Times New Roman_MSFontService', sans-serif"
           font-weight="400"
           font-size="12px"
           transform="translate(460.168,138)"
           id="text3494">= 23,4%</text>
      </g>
      <g
         clip-path="url(#clip53)"
         id="g3500">
        <text
           font-family="'Times New Roman', 'Times New Roman_MSFontService', sans-serif"
           font-style="italic"
           font-weight="400"
           font-size="12px"
           transform="translate(503.928,138)"
           id="text3498">d</text>
      </g>
      <g
         clip-path="url(#clip54)"
         id="g3504">
        <text
           font-family="'Times New Roman', 'Times New Roman_MSFontService', sans-serif"
           font-weight="400"
           font-size="12px"
           transform="translate(512.928,138)"
           id="text3502">= 2,05</text>
      </g>
      <g
         clip-path="url(#clip55)"
         id="g3508">
        <text
           font-family="'Times New Roman', 'Times New Roman_MSFontService', sans-serif"
           font-weight="400"
           font-size="12px"
           transform="translate(454.442,166)"
           id="text3506">Confinamento</text>
      </g>
      <g
         clip-path="url(#clip56)"
         id="g3512">
        <text
           font-family="'Times New Roman', 'Times New Roman_MSFontService', sans-serif"
           font-style="italic"
           font-weight="400"
           font-size="12px"
           transform="translate(526.095,166)"
           id="text3510">P</text>
      </g>
      <g
         clip-path="url(#clip57)"
         id="g3516">
        <path
           d="m 454.828,166.998 h 27.334 27.333 27.333 v 1 h -27.333 -27.333 -27.334 z"
           fill-rule="evenodd"
           id="path3514" />
      </g>
      <g
         clip-path="url(#clip58)"
         id="g3520">
        <text
           font-family="'Times New Roman', 'Times New Roman_MSFontService', sans-serif"
           font-weight="400"
           font-size="12px"
           transform="translate(476.602,180)"
           id="text3518">0,5MPa</text>
      </g>
      <g
         clip-path="url(#clip59)"
         id="g3524">
        <text
           font-family="'Times New Roman', 'Times New Roman_MSFontService', sans-serif"
           font-weight="400"
           font-size="12px"
           transform="translate(429.642,207)"
           id="text3522">Velocidade de deformação</text>
      </g>
      <g
         clip-path="url(#clip60)"
         id="g3528">
        <path
           d="m 429.828,207.998 h 32.75 32.75 32.75 32.75 v 1 h -32.75 -32.75 -32.75 -32.75 z"
           fill-rule="evenodd"
           id="path3526" />
      </g>
      <g
         clip-path="url(#clip61)"
         id="g3532">
        <text
           font-family="'Times New Roman', 'Times New Roman_MSFontService', sans-serif"
           font-weight="400"
           font-size="12px"
           transform="translate(472.102,221)"
           id="text3530">1mm/min</text>
      </g>
      <g
         clip-path="url(#clip62)"
         id="g3536">
        <text
           font-family="'Times New Roman', 'Times New Roman_MSFontService', sans-serif"
           font-weight="400"
           font-size="12px"
           transform="translate(466.115,249)"
           id="text3534">Elasticidade</text>
      </g>
      <g
         clip-path="url(#clip63)"
         id="g3540">
        <path
           d="m 465.828,249.998 h 29.5 29.5 v 1 h -29.5 -29.5 z"
           fill-rule="evenodd"
           id="path3538" />
      </g>
      <g
         clip-path="url(#clip64)"
         id="g3544">
        <text
           font-family="'Times New Roman', 'Times New Roman_MSFontService', sans-serif"
           font-style="italic"
           font-weight="400"
           font-size="12px"
           transform="translate(443.955,262)"
           id="text3542">E</text>
      </g>
      <g
         clip-path="url(#clip65)"
         id="g3548">
        <text
           font-family="'Times New Roman', 'Times New Roman_MSFontService', sans-serif"
           font-weight="400"
           font-size="12px"
           transform="translate(454.288,262)"
           id="text3546">= 403MPa</text>
      </g>
      <g
         clip-path="url(#clip66)"
         id="g3552">
        <text
           font-family="'Times New Roman', 'Times New Roman_MSFontService', sans-serif"
           font-weight="400"
           font-size="12px"
           transform="translate(507.722,262)"
           id="text3550">ν</text>
      </g>
      <g
         clip-path="url(#clip67)"
         id="g3556">
        <text
           font-family="'Times New Roman', 'Times New Roman_MSFontService', sans-serif"
           font-weight="400"
           font-size="12px"
           transform="translate(516.148,262)"
           id="text3554">= 0,39</text>
      </g>
      <g
         clip-path="url(#clip68)"
         id="g3560">
        <text
           font-family="'Times New Roman', 'Times New Roman_MSFontService', sans-serif"
           font-weight="400"
           font-size="12px"
           transform="translate(476.108,290)"
           id="text3558">Ruptura</text>
      </g>
      <g
         clip-path="url(#clip69)"
         id="g3564">
        <path
           d="m 475.828,290.998 h 19.5 19.5 v 1 h -19.5 -19.5 z"
           fill-rule="evenodd"
           id="path3562" />
      </g>
      <g
         clip-path="url(#clip70)"
         id="g3568">
        <text
           font-family="'Times New Roman', 'Times New Roman_MSFontService', sans-serif"
           font-weight="400"
           font-size="12px"
           transform="translate(445.562,304)"
           id="text3566">Desviador = 2,7MPa</text>
      </g>
      <g
         clip-path="url(#clip71)"
         id="g3572">
        <text
           font-family="'Times New Roman', 'Times New Roman_MSFontService', sans-serif"
           font-weight="400"
           font-size="12px"
           transform="translate(443.908,317)"
           id="text3570">Deformação = 4,39%</text>
      </g>
      <g
         clip-path="url(#clip72)"
         id="g3576">
        <text
           font-family="'Times New Roman', 'Times New Roman_MSFontService', sans-serif"
           font-weight="400"
           font-size="12px"
           transform="translate(425.075,331)"
           id="text3574">Desviador residual = 1,7MPa</text>
      </g>
      <g
         clip-path="url(#clip73)"
         id="g3580">
        <text
           font-family="'Cambria Math', 'Cambria Math_MSFontService', sans-serif"
           font-weight="400"
           font-size="15px"
           transform="translate(153.545,239)"
           id="text3578">∆</text>
      </g>
      <g
         clip-path="url(#clip74)"
         id="g3584">
        <text
           font-family="'Cambria Math', 'Cambria Math_MSFontService', sans-serif"
           font-weight="400"
           font-size="15px"
           transform="translate(162.285,239)"
           id="text3582">𝑉</text>
      </g>
      <g
         clip-path="url(#clip75)"
         id="g3590">
        <g
           clip-path="url(#clip76)"
           id="g3588">
          <text
             font-family="'Cambria Math', 'Cambria Math_MSFontService', sans-serif"
             font-weight="400"
             font-size="15px"
             transform="translate(157.912,260)"
             id="text3586">𝑉</text>
        </g>
      </g>
      <g
         clip-path="url(#clip77)"
         id="g3594">
        <path
           d="m 153.545,244.843 h 18 v 1 h -18 z"
           fill-rule="evenodd"
           id="path3592" />
      </g>
      <g
         clip-path="url(#clip78)"
         id="g3598">
        <text
           font-family="'Cambria Math', 'Cambria Math_MSFontService', sans-serif"
           font-weight="400"
           font-size="15px"
           transform="translate(131.876,149)"
           id="text3596">𝑄</text>
      </g>
      <g
         clip-path="url(#clip79)"
         id="g3602">
        <text
           font-family="'Cambria Math', 'Cambria Math_MSFontService', sans-serif"
           font-weight="400"
           font-size="15px"
           transform="translate(145.482,149)"
           id="text3600">−</text>
      </g>
      <g
         clip-path="url(#clip80)"
         id="g3606">
        <text
           font-family="'Cambria Math', 'Cambria Math_MSFontService', sans-serif"
           font-weight="400"
           font-size="15px"
           transform="translate(159.702,149)"
           id="text3604">𝑃</text>
      </g>
    </g>
  </g>
</svg>
