<?xml version="1.0" encoding="UTF-8" standalone="no"?>
<svg
   xmlns:dc="http://purl.org/dc/elements/1.1/"
   xmlns:cc="http://creativecommons.org/ns#"
   xmlns:rdf="http://www.w3.org/1999/02/22-rdf-syntax-ns#"
   xmlns:svg="http://www.w3.org/2000/svg"
   xmlns="http://www.w3.org/2000/svg"
   xmlns:sodipodi="http://sodipodi.sourceforge.net/DTD/sodipodi-0.dtd"
   xmlns:inkscape="http://www.inkscape.org/namespaces/inkscape"
   width="154.73717mm"
   height="100.233mm"
   viewBox="0 0 154.73717 100.233"
   version="1.1"
   id="svg8"
   inkscape:version="1.0.1 (3bc2e813f5, 2020-09-07)"
   sodipodi:docname="0416-ensaio triaxial de fluência da Argila de Boom.svg">
  <defs
     id="defs2">
    <clipPath
       id="clip0">
      <rect
         x="0"
         y="0"
         width="585"
         height="379"
         id="rect833" />
    </clipPath>
    <clipPath
       id="clip1">
      <rect
         x="0"
         y="0"
         width="583"
         height="377"
         id="rect836" />
    </clipPath>
    <clipPath
       id="clip2">
      <rect
         x="0"
         y="0"
         width="583"
         height="377"
         id="rect839" />
    </clipPath>
    <clipPath
       id="clip3">
      <rect
         x="0"
         y="0"
         width="583"
         height="377"
         id="rect842" />
    </clipPath>
    <clipPath
       id="clip4">
      <rect
         x="0"
         y="0"
         width="583"
         height="377"
         id="rect845" />
    </clipPath>
    <clipPath
       id="clip5">
      <rect
         x="0"
         y="0"
         width="583"
         height="377"
         id="rect848" />
    </clipPath>
    <clipPath
       id="clip6">
      <rect
         x="0"
         y="0"
         width="583"
         height="377"
         id="rect851" />
    </clipPath>
    <clipPath
       id="clip7">
      <rect
         x="0"
         y="0"
         width="583"
         height="377"
         id="rect854" />
    </clipPath>
    <clipPath
       id="clip8">
      <rect
         x="32"
         y="76"
         width="349"
         height="257"
         id="rect857" />
    </clipPath>
    <clipPath
       id="clip9">
      <rect
         x="0"
         y="0"
         width="583"
         height="377"
         id="rect860" />
    </clipPath>
    <clipPath
       id="clip10">
      <rect
         x="0"
         y="0"
         width="583"
         height="377"
         id="rect863" />
    </clipPath>
    <clipPath
       id="clip11">
      <rect
         x="0"
         y="0"
         width="583"
         height="377"
         id="rect866" />
    </clipPath>
    <clipPath
       id="clip12">
      <rect
         x="0"
         y="0"
         width="583"
         height="377"
         id="rect869" />
    </clipPath>
    <clipPath
       id="clip13">
      <rect
         x="0"
         y="0"
         width="583"
         height="377"
         id="rect872" />
    </clipPath>
    <clipPath
       id="clip14">
      <rect
         x="0"
         y="0"
         width="583"
         height="377"
         id="rect875" />
    </clipPath>
    <clipPath
       id="clip15">
      <rect
         x="0"
         y="0"
         width="583"
         height="377"
         id="rect878" />
    </clipPath>
    <clipPath
       id="clip16">
      <rect
         x="0"
         y="0"
         width="584"
         height="378"
         id="rect881" />
    </clipPath>
    <clipPath
       id="clip17">
      <rect
         x="0"
         y="0"
         width="584"
         height="378"
         id="rect884" />
    </clipPath>
    <clipPath
       id="clip18">
      <rect
         x="0"
         y="0"
         width="584"
         height="378"
         id="rect887" />
    </clipPath>
    <clipPath
       id="clip19">
      <rect
         x="0"
         y="0"
         width="584"
         height="378"
         id="rect890" />
    </clipPath>
    <clipPath
       id="clip20">
      <rect
         x="0"
         y="0"
         width="584"
         height="378"
         id="rect893" />
    </clipPath>
    <clipPath
       id="clip21">
      <rect
         x="0"
         y="0"
         width="584"
         height="378"
         id="rect896" />
    </clipPath>
    <clipPath
       id="clip22">
      <rect
         x="0"
         y="0"
         width="584"
         height="378"
         id="rect899" />
    </clipPath>
    <clipPath
       id="clip23">
      <rect
         x="0"
         y="0"
         width="584"
         height="378"
         id="rect902" />
    </clipPath>
    <clipPath
       id="clip24">
      <rect
         x="0"
         y="0"
         width="584"
         height="378"
         id="rect905" />
    </clipPath>
    <clipPath
       id="clip25">
      <rect
         x="0"
         y="0"
         width="584"
         height="378"
         id="rect908" />
    </clipPath>
    <clipPath
       id="clip26">
      <rect
         x="0"
         y="0"
         width="584"
         height="378"
         id="rect911" />
    </clipPath>
    <clipPath
       id="clip27">
      <rect
         x="0"
         y="0"
         width="584"
         height="378"
         id="rect914" />
    </clipPath>
    <clipPath
       id="clip28">
      <rect
         x="0"
         y="0"
         width="584"
         height="378"
         id="rect917" />
    </clipPath>
    <clipPath
       id="clip29">
      <rect
         x="0"
         y="0"
         width="584"
         height="378"
         id="rect920" />
    </clipPath>
    <clipPath
       id="clip30">
      <rect
         x="0"
         y="0"
         width="584"
         height="378"
         id="rect923" />
    </clipPath>
    <clipPath
       id="clip31">
      <rect
         x="0"
         y="0"
         width="584"
         height="378"
         id="rect926" />
    </clipPath>
    <clipPath
       id="clip32">
      <rect
         x="0"
         y="0"
         width="584"
         height="378"
         id="rect929" />
    </clipPath>
    <clipPath
       id="clip33">
      <rect
         x="0"
         y="0"
         width="584"
         height="378"
         id="rect932" />
    </clipPath>
    <clipPath
       id="clip34">
      <rect
         x="0"
         y="0"
         width="584"
         height="378"
         id="rect935" />
    </clipPath>
    <clipPath
       id="clip35">
      <rect
         x="0"
         y="0"
         width="584"
         height="378"
         id="rect938" />
    </clipPath>
    <clipPath
       id="clip36">
      <rect
         x="0"
         y="0"
         width="584"
         height="378"
         id="rect941" />
    </clipPath>
    <clipPath
       id="clip37">
      <rect
         x="0"
         y="0"
         width="584"
         height="378"
         id="rect944" />
    </clipPath>
    <clipPath
       id="clip38">
      <rect
         x="0"
         y="0"
         width="584"
         height="378"
         id="rect947" />
    </clipPath>
    <clipPath
       id="clip39">
      <rect
         x="0"
         y="0"
         width="584"
         height="378"
         id="rect950" />
    </clipPath>
    <clipPath
       id="clip40">
      <rect
         x="0"
         y="0"
         width="584"
         height="378"
         id="rect953" />
    </clipPath>
    <clipPath
       id="clip41">
      <rect
         x="0"
         y="0"
         width="584"
         height="378"
         id="rect956" />
    </clipPath>
    <clipPath
       id="clip42">
      <rect
         x="0"
         y="0"
         width="584"
         height="378"
         id="rect959" />
    </clipPath>
    <clipPath
       id="clip43">
      <rect
         x="0"
         y="0"
         width="584"
         height="378"
         id="rect962" />
    </clipPath>
    <clipPath
       id="clip44">
      <rect
         x="0"
         y="0"
         width="584"
         height="378"
         id="rect965" />
    </clipPath>
    <clipPath
       id="clip45">
      <rect
         x="0"
         y="0"
         width="584"
         height="378"
         id="rect968" />
    </clipPath>
    <clipPath
       id="clip46">
      <rect
         x="0"
         y="0"
         width="584"
         height="378"
         id="rect971" />
    </clipPath>
    <clipPath
       id="clip47">
      <rect
         x="0"
         y="0"
         width="584"
         height="378"
         id="rect974" />
    </clipPath>
    <clipPath
       id="clip48">
      <rect
         x="0"
         y="0"
         width="584"
         height="378"
         id="rect977" />
    </clipPath>
    <clipPath
       id="clip49">
      <rect
         x="0"
         y="0"
         width="584"
         height="378"
         id="rect980" />
    </clipPath>
    <clipPath
       id="clip50">
      <rect
         x="0"
         y="0"
         width="584"
         height="378"
         id="rect983" />
    </clipPath>
    <clipPath
       id="clip51">
      <rect
         x="0"
         y="0"
         width="584"
         height="378"
         id="rect986" />
    </clipPath>
    <clipPath
       id="clip52">
      <rect
         x="0"
         y="0"
         width="584"
         height="378"
         id="rect989" />
    </clipPath>
  </defs>
  <sodipodi:namedview
     id="base"
     pagecolor="#ffffff"
     bordercolor="#666666"
     borderopacity="1.0"
     inkscape:pageopacity="0.0"
     inkscape:pageshadow="2"
     inkscape:zoom="1.2379399"
     inkscape:cx="284.61939"
     inkscape:cy="239.3855"
     inkscape:document-units="mm"
     inkscape:current-layer="layer1"
     inkscape:document-rotation="0"
     showgrid="false"
     inkscape:window-width="1512"
     inkscape:window-height="1040"
     inkscape:window-x="208"
     inkscape:window-y="0"
     inkscape:window-maximized="0" />
  <metadata
     id="metadata5">
    <rdf:RDF>
      <cc:Work
         rdf:about="">
        <dc:format>image/svg+xml</dc:format>
        <dc:type
           rdf:resource="http://purl.org/dc/dcmitype/StillImage" />
        <dc:title></dc:title>
      </cc:Work>
    </rdf:RDF>
  </metadata>
  <g
     inkscape:label="Layer 1"
     inkscape:groupmode="layer"
     id="layer1"
     transform="translate(-16.520814,-6.0389697)">
    <g
       clip-path="url(#clip0)"
       id="g1206"
       transform="matrix(0.26458333,0,0,0.26458333,16.520814,6.0389697)">
      <rect
         x="0"
         y="0"
         width="584"
         height="378"
         fill="#ffffff"
         id="rect994" />
      <g
         clip-path="url(#clip1)"
         id="g998">
        <path
           d="M 32.5001,234.5 H 380.5 M 32.5001,135.5 H 380.5"
           stroke="#000000"
           stroke-width="0.666667"
           stroke-miterlimit="8"
           fill="none"
           id="path996" />
      </g>
      <g
         clip-path="url(#clip2)"
         id="g1002">
        <path
           d="M 59.5001,76.5001 V 332.5 m 27,-255.9999 V 332.5 M 113.5,76.5001 V 332.5 m 26,-255.9999 V 332.5 m 27,-255.9999 V 332.5 m 27,-255.9999 V 332.5 m 27,-255.9999 V 332.5 m 26,-255.9999 V 332.5 m 27,-255.9999 V 332.5 m 27,-255.9999 V 332.5 m 27,-255.9999 V 332.5 m 27,-255.9999 V 332.5 m 26,-255.9999 V 332.5"
           stroke="#a5a5a5"
           stroke-width="0.666667"
           stroke-linejoin="round"
           stroke-miterlimit="10"
           fill="none"
           id="path1000" />
      </g>
      <g
         clip-path="url(#clip3)"
         id="g1006">
        <path
           d="M 0,0 1.04987e-4,256"
           stroke="#000000"
           stroke-width="0.666667"
           stroke-miterlimit="8"
           fill="none"
           fill-rule="evenodd"
           transform="matrix(1,0,0,-1,380.5,332.5)"
           id="path1004" />
      </g>
      <g
         clip-path="url(#clip4)"
         id="g1010">
        <path
           d="M 0,0 1.04987e-4,256"
           stroke="#000000"
           stroke-width="0.666667"
           stroke-miterlimit="8"
           fill="none"
           fill-rule="evenodd"
           transform="matrix(1,0,0,-1,32.5001,332.5)"
           id="path1008" />
      </g>
      <g
         clip-path="url(#clip5)"
         id="g1014">
        <path
           d="m 29.5001,332.5 h 3 m -3,-20 h 3 m -3,-19 h 3 m -3,-20 h 3 m -3,-20 h 3 m -3,-19 h 3 m -3,-20 h 3 m -3,-20 h 3 m -3,-19 h 3 m -3,-20 h 3 m -3,-20 h 3 m -3,-19 h 3 m -3,-19.9999 h 3 m -3,-20 h 3 m -4,255.9999 h 4 m -4,-98 h 4 m -4,-99 h 4"
           stroke="#000000"
           stroke-width="0.666667"
           stroke-miterlimit="8"
           fill="none"
           id="path1012" />
      </g>
      <g
         clip-path="url(#clip6)"
         id="g1018">
        <path
           d="M 32.5001,332.5 H 380.5"
           stroke="#000000"
           stroke-width="0.666667"
           stroke-miterlimit="8"
           fill="none"
           fill-rule="evenodd"
           id="path1016" />
      </g>
      <g
         clip-path="url(#clip7)"
         id="g1022">
        <path
           d="m 32.5001,332.5 v 3 m 27,-3 v 3 m 27,-3 v 3 m 26.9999,-3 v 3 m 26,-3 v 3 m 27,-3 v 3 m 27,-3 v 3 m 27,-3 v 3 m 26,-3 v 3 m 27,-3 v 3 m 27,-3 v 3 m 27,-3 v 3 m 27,-3 v 3 m 26,-3 v 3 m -347.9999,-3 v 4 m 133.9999,-4 v 4 m 134,-4 v 4"
           stroke="#000000"
           stroke-width="0.666667"
           stroke-miterlimit="8"
           fill="none"
           id="path1020" />
      </g>
      <g
         clip-path="url(#clip8)"
         id="g1026">
        <path
           d="M 34.0388,313.491 C 33.8465,315.817 33,321 33.462,320.471 c 0.4619,-0.529 1.3944,-8.517 3.3484,-10.154 1.9539,-1.636 5.4461,0.185 8.3756,0.333 2.9293,0.148 6.5124,0.462 9.2011,0.556 2.6885,0.094 4.6891,-0.024 6.9305,0.009 2.2413,0.033 4.3449,0.157 6.5175,0.19 2.1725,0.033 4.3447,0.404 6.5176,0.008 2.1728,-0.396 4.3467,-2.041 6.5196,-2.385 2.1728,-0.344 4.3448,0.286 6.5174,0.321 2.1725,0.034 4.3451,-0.075 6.5177,-0.112 2.1725,-0.038 4.345,-0.01 6.5176,-0.112 2.173,-0.103 4.345,-0.422 6.518,-0.505 2.173,-0.082 4.345,0.122 6.518,0.009 2.172,-0.113 4.345,-0.467 6.518,-0.685 2.173,-0.219 4.345,-0.427 6.518,-0.625 2.173,-0.199 4.346,-0.522 6.518,-0.565 2.173,-0.042 4.345,0.277 6.518,0.311 2.172,0.033 4.345,-0.06 6.517,-0.112 2.173,-0.053 4.346,-0.161 6.518,-0.203 2.173,-0.042 4.345,-0.085 6.518,-0.052 2.172,0.033 4.345,0.398 6.517,0.25 2.173,-0.148 5.034,-0.104 6.519,-1.138 1.485,-1.034 0.666,-3.986 2.392,-5.065 1.726,-1.079 5.103,-1.02 7.964,-1.408 2.861,-0.389 6.583,-0.68 9.203,-0.923 2.62,-0.243 4.345,-0.286 6.518,-0.535 2.173,-0.248 4.346,-0.627 6.518,-0.956 2.173,-0.329 4.346,-0.709 6.519,-1.018 2.172,-0.309 4.345,-0.482 6.518,-0.836 2.173,-0.354 4.346,-0.794 6.519,-1.288 2.173,-0.496 4.346,-1.151 6.519,-1.682 2.173,-0.53 4.346,-1.055 6.519,-1.5 2.172,-0.444 4.345,-0.703 6.518,-1.168 2.173,-0.464 4.346,-0.874 6.519,-1.62 2.173,-0.747 4.347,-2.162 6.52,-2.858 2.173,-0.696 4.346,-0.864 6.519,-1.319 2.173,-0.455 4.346,-0.94 6.519,-1.409 2.172,-0.47 4.345,-0.94 6.518,-1.41 2.173,-0.47 4.346,-0.908 6.519,-1.409 2.173,-0.502 4.346,-0.995 6.519,-1.601 2.173,-0.606 4.346,-1.298 6.519,-2.033 2.173,-0.735 4.346,-1.226 6.52,-2.375 2.173,-1.149 4.348,-3.328 6.521,-4.517 2.174,-1.189 4.346,-1.619 6.52,-2.617 2.173,-0.997 4.347,-2.056 6.52,-3.37 2.174,-1.315 4.446,-2.656 6.522,-4.518 2.075,-1.861 4.2,-4.491 5.93,-6.65 1.73,-2.158 3.114,-3.803 4.449,-6.3 1.335,-2.497 2.326,-6.211 3.562,-8.68 1.237,-2.469 2.67,-3.924 3.856,-6.135 1.187,-2.211 2.325,-4.713 3.265,-7.132 0.94,-2.419 1.584,-4.7 2.376,-7.382 0.792,-2.681 1.585,-5.737 2.377,-8.709 0.792,-2.972 1.585,-6.29 2.377,-9.124 0.793,-2.834 1.684,-5.225 2.377,-7.88 0.693,-2.654 1.271,-5.221 1.784,-8.046 0.512,-2.825 0.894,-6.18 1.291,-8.904 0.397,-2.724 0.711,-4.858 1.092,-7.439 0.381,-2.581 0.795,-5.379 1.192,-8.047 0.397,-2.669 0.794,-5.448 1.191,-7.964 0.397,-2.516 0.744,-4.461 1.191,-7.134 0.446,-2.674 1.075,-6.226 1.488,-8.905 0.414,-2.678 0.646,-4.31 0.994,-7.167 0.348,-2.858 0.614,-6.67 1.094,-9.978 0.48,-3.308 1.24,-6.885 1.786,-9.872 0.545,-2.986 1.071,-5.499 1.487,-8.0464 0.416,-2.5471 0.735,-4.7191 1.007,-7.2355 0.272,-2.5166 0.418,-5.5892 0.626,-7.8634 0.208,-2.2741 0.52,-4.8181 0.624,-5.7817"
           stroke="#000000"
           stroke-width="2"
           stroke-linecap="round"
           stroke-linejoin="round"
           stroke-miterlimit="10"
           fill="none"
           id="path1024" />
      </g>
      <g
         clip-path="url(#clip9)"
         id="g1030">
        <text
           font-family="Calibri, Calibri_MSFontService, sans-serif"
           font-weight="400"
           font-size="13px"
           transform="translate(13.676,337)"
           id="text1028">0</text>
      </g>
      <g
         clip-path="url(#clip10)"
         id="g1034">
        <text
           font-family="Calibri, Calibri_MSFontService, sans-serif"
           font-weight="400"
           font-size="13px"
           transform="translate(13.676,238)"
           id="text1032">5</text>
      </g>
      <g
         clip-path="url(#clip11)"
         id="g1038">
        <text
           font-family="Calibri, Calibri_MSFontService, sans-serif"
           font-weight="400"
           font-size="13px"
           transform="translate(6.91601,140)"
           id="text1036">10</text>
      </g>
      <g
         clip-path="url(#clip12)"
         id="g1042">
        <text
           font-family="Calibri, Calibri_MSFontService, sans-serif"
           font-weight="400"
           font-size="13px"
           transform="translate(29.4238,354)"
           id="text1040">0</text>
      </g>
      <g
         clip-path="url(#clip13)"
         id="g1046">
        <text
           font-family="Calibri, Calibri_MSFontService, sans-serif"
           font-weight="400"
           font-size="13px"
           transform="translate(156.513,354)"
           id="text1044">500</text>
      </g>
      <g
         clip-path="url(#clip14)"
         id="g1050">
        <text
           font-family="Calibri, Calibri_MSFontService, sans-serif"
           font-weight="400"
           font-size="13px"
           transform="translate(286.983,354)"
           id="text1048">1000</text>
      </g>
      <g
         clip-path="url(#clip15)"
         id="g1054">
        <text
           font-family="'Times New Roman', 'Times New Roman_MSFontService', sans-serif"
           font-weight="700"
           font-size="21px"
           transform="translate(119.987,30)"
           id="text1052">ENSAIO TRIAXIAL DE FLUÊNCIA</text>
      </g>
      <rect
         x="0.50005299"
         y="0.50005299"
         width="584"
         height="378"
         stroke="#898989"
         stroke-width="0.666667"
         stroke-linejoin="round"
         stroke-miterlimit="10"
         fill="none"
         id="rect1056" />
      <g
         clip-path="url(#clip16)"
         id="g1060">
        <text
           font-family="'Times New Roman', 'Times New Roman_MSFontService', sans-serif"
           font-weight="400"
           font-size="15px"
           transform="translate(23.3108,61)"
           id="text1058">Deformação axial (%)</text>
      </g>
      <g
         clip-path="url(#clip17)"
         id="g1064">
        <text
           font-family="'Times New Roman', 'Times New Roman_MSFontService', sans-serif"
           font-weight="400"
           font-size="16px"
           transform="translate(424.408,76)"
           id="text1062">Argila</text>
      </g>
      <g
         clip-path="url(#clip18)"
         id="g1068">
        <text
           font-family="'Times New Roman', 'Times New Roman_MSFontService', sans-serif"
           font-weight="400"
           font-size="16px"
           transform="translate(469.282,76)"
           id="text1066">de Boom</text>
      </g>
      <g
         clip-path="url(#clip19)"
         id="g1072">
        <path
           d="m 424.348,77.7569 h 34.334 34.333 34.333 v 1 h -34.333 -34.333 -34.334 z"
           fill-rule="evenodd"
           id="path1070" />
      </g>
      <g
         clip-path="url(#clip20)"
         id="g1076">
        <text
           font-family="'Times New Roman', 'Times New Roman_MSFontService', sans-serif"
           font-weight="400"
           font-size="16px"
           transform="translate(423.302,150)"
           id="text1074">Confinamento</text>
      </g>
      <g
         clip-path="url(#clip21)"
         id="g1080">
        <text
           font-family="'Times New Roman', 'Times New Roman_MSFontService', sans-serif"
           font-style="italic"
           font-weight="400"
           font-size="16px"
           transform="translate(518.842,150)"
           id="text1078">P</text>
      </g>
      <g
         clip-path="url(#clip22)"
         id="g1084">
        <path
           d="m 423.348,151.757 h 35 35 35 v 1 h -35 -35 -35 z"
           fill-rule="evenodd"
           id="path1082" />
      </g>
      <g
         clip-path="url(#clip23)"
         id="g1088">
        <text
           font-family="'Times New Roman', 'Times New Roman_MSFontService', sans-serif"
           font-weight="400"
           font-size="16px"
           transform="translate(456.842,168)"
           id="text1086">5MPa</text>
      </g>
      <g
         clip-path="url(#clip24)"
         id="g1092">
        <text
           font-family="'Cambria Math', 'Cambria Math_MSFontService', sans-serif"
           font-weight="400"
           font-size="15px"
           transform="translate(190.56,207)"
           id="text1090">𝑄</text>
      </g>
      <g
         clip-path="url(#clip25)"
         id="g1096">
        <text
           font-family="'Cambria Math', 'Cambria Math_MSFontService', sans-serif"
           font-weight="400"
           font-size="15px"
           transform="translate(204.166,207)"
           id="text1094">−</text>
      </g>
      <g
         clip-path="url(#clip26)"
         id="g1100">
        <text
           font-family="'Cambria Math', 'Cambria Math_MSFontService', sans-serif"
           font-weight="400"
           font-size="15px"
           transform="translate(218.386,207)"
           id="text1098">𝑃</text>
      </g>
      <g
         clip-path="url(#clip27)"
         id="g1104">
        <text
           font-family="'Cambria Math', 'Cambria Math_MSFontService', sans-serif"
           font-weight="400"
           font-size="15px"
           transform="translate(184.526,224)"
           id="text1102">2</text>
      </g>
      <g
         clip-path="url(#clip28)"
         id="g1108">
        <text
           font-family="'Cambria Math', 'Cambria Math_MSFontService', sans-serif"
           font-weight="400"
           font-size="15px"
           transform="translate(192.646,224)"
           id="text1106">,</text>
      </g>
      <g
         clip-path="url(#clip29)"
         id="g1112">
        <text
           font-family="'Cambria Math', 'Cambria Math_MSFontService', sans-serif"
           font-weight="400"
           font-size="15px"
           transform="translate(195.653,224)"
           id="text1110">5𝑀𝑃𝑎</text>
      </g>
      <g
         clip-path="url(#clip30)"
         id="g1116">
        <text
           font-family="'Cambria Math', 'Cambria Math_MSFontService', sans-serif"
           font-weight="400"
           font-size="15px"
           transform="translate(121.503,184)"
           id="text1114">𝑄</text>
      </g>
      <g
         clip-path="url(#clip31)"
         id="g1120">
        <text
           font-family="'Cambria Math', 'Cambria Math_MSFontService', sans-serif"
           font-weight="400"
           font-size="15px"
           transform="translate(135.11,184)"
           id="text1118">−</text>
      </g>
      <g
         clip-path="url(#clip32)"
         id="g1124">
        <text
           font-family="'Cambria Math', 'Cambria Math_MSFontService', sans-serif"
           font-weight="400"
           font-size="15px"
           transform="translate(149.33,184)"
           id="text1122">𝑃</text>
      </g>
      <g
         clip-path="url(#clip33)"
         id="g1128">
        <text
           font-family="'Cambria Math', 'Cambria Math_MSFontService', sans-serif"
           font-weight="400"
           font-size="15px"
           transform="translate(111.543,201)"
           id="text1126">2</text>
      </g>
      <g
         clip-path="url(#clip34)"
         id="g1132">
        <text
           font-family="'Cambria Math', 'Cambria Math_MSFontService', sans-serif"
           font-weight="400"
           font-size="15px"
           transform="translate(119.663,201)"
           id="text1130">,</text>
      </g>
      <g
         clip-path="url(#clip35)"
         id="g1136">
        <text
           font-family="'Cambria Math', 'Cambria Math_MSFontService', sans-serif"
           font-weight="400"
           font-size="15px"
           transform="translate(122.67,201)"
           id="text1134">25𝑀𝑃𝑎</text>
      </g>
      <g
         clip-path="url(#clip36)"
         id="g1140">
        <text
           font-family="'Cambria Math', 'Cambria Math_MSFontService', sans-serif"
           font-weight="400"
           font-size="15px"
           transform="translate(51.6199,208)"
           id="text1138">𝑄</text>
      </g>
      <g
         clip-path="url(#clip37)"
         id="g1144">
        <text
           font-family="'Cambria Math', 'Cambria Math_MSFontService', sans-serif"
           font-weight="400"
           font-size="15px"
           transform="translate(65.2266,208)"
           id="text1142">−</text>
      </g>
      <g
         clip-path="url(#clip38)"
         id="g1148">
        <text
           font-family="'Cambria Math', 'Cambria Math_MSFontService', sans-serif"
           font-weight="400"
           font-size="15px"
           transform="translate(79.4466,208)"
           id="text1146">𝑃</text>
      </g>
      <g
         clip-path="url(#clip39)"
         id="g1152">
        <text
           font-family="'Cambria Math', 'Cambria Math_MSFontService', sans-serif"
           font-weight="400"
           font-size="15px"
           transform="translate(41.5199,225)"
           id="text1150">1</text>
      </g>
      <g
         clip-path="url(#clip40)"
         id="g1156">
        <text
           font-family="'Cambria Math', 'Cambria Math_MSFontService', sans-serif"
           font-weight="400"
           font-size="15px"
           transform="translate(49.6399,225)"
           id="text1154">,</text>
      </g>
      <g
         clip-path="url(#clip41)"
         id="g1160">
        <text
           font-family="'Cambria Math', 'Cambria Math_MSFontService', sans-serif"
           font-weight="400"
           font-size="15px"
           transform="translate(52.6466,225)"
           id="text1158">75𝑀𝑃𝑎</text>
      </g>
      <g
         clip-path="url(#clip42)"
         id="g1164">
        <text
           font-family="'Times New Roman', 'Times New Roman_MSFontService', sans-serif"
           font-weight="400"
           font-size="15px"
           transform="translate(350.915,355)"
           id="text1162">tempo (h)</text>
      </g>
      <g
         clip-path="url(#clip43)"
         id="g1168">
        <path
           d="M 0.330465,-0.0436315 9.57731,69.992 8.91638,70.0792 -0.330465,0.0436315 Z M 13.0379,68.1902 10.1195,76.6449 5.10673,69.2373 Z"
           transform="matrix(-1,0,0,1,49.6195,231.5)"
           id="path1166" />
      </g>
      <g
         clip-path="url(#clip44)"
         id="g1172">
        <path
           d="M 0.30611,-0.131939 40.6622,93.4975 40.05,93.7613 -0.30611,0.131939 Z M 43.5017,90.8218 42.995,99.7517 36.1551,93.9883 Z"
           transform="matrix(-1,0,0,1,125.495,207.5)"
           id="path1170" />
      </g>
      <g
         clip-path="url(#clip45)"
         id="g1176">
        <path
           d="M 0.313563,-0.11309 23.0325,62.8795 22.4053,63.1057 -0.313563,0.11309 Z M 26.0293,60.3812 24.9807,69.2638 18.5038,63.0954 Z"
           transform="matrix(-1,0,0,1,200.481,229.5)"
           id="path1174" />
      </g>
      <g
         clip-path="url(#clip46)"
         id="g1180">
        <text
           font-family="'Cambria Math', 'Cambria Math_MSFontService', sans-serif"
           font-weight="400"
           font-size="15px"
           transform="translate(276.561,187)"
           id="text1178">𝑄</text>
      </g>
      <g
         clip-path="url(#clip47)"
         id="g1184">
        <text
           font-family="'Cambria Math', 'Cambria Math_MSFontService', sans-serif"
           font-weight="400"
           font-size="15px"
           transform="translate(290.168,187)"
           id="text1182">−</text>
      </g>
      <g
         clip-path="url(#clip48)"
         id="g1188">
        <text
           font-family="'Cambria Math', 'Cambria Math_MSFontService', sans-serif"
           font-weight="400"
           font-size="15px"
           transform="translate(304.388,187)"
           id="text1186">𝑃</text>
      </g>
      <g
         clip-path="url(#clip49)"
         id="g1192">
        <text
           font-family="'Cambria Math', 'Cambria Math_MSFontService', sans-serif"
           font-weight="400"
           font-size="15px"
           transform="translate(266.468,204)"
           id="text1190">2</text>
      </g>
      <g
         clip-path="url(#clip50)"
         id="g1196">
        <text
           font-family="'Cambria Math', 'Cambria Math_MSFontService', sans-serif"
           font-weight="400"
           font-size="15px"
           transform="translate(274.588,204)"
           id="text1194">,</text>
      </g>
      <g
         clip-path="url(#clip51)"
         id="g1200">
        <text
           font-family="'Cambria Math', 'Cambria Math_MSFontService', sans-serif"
           font-weight="400"
           font-size="15px"
           transform="translate(277.595,204)"
           id="text1198">75𝑀𝑃𝑎</text>
      </g>
      <g
         clip-path="url(#clip52)"
         id="g1204">
        <path
           d="m 295.831,216.457 6.816,51.875 -0.661,0.087 -6.816,-51.876 z m 10.277,50.075 -2.923,8.453 -5.009,-7.41 z"
           id="path1202" />
      </g>
    </g>
  </g>
</svg>
