<?xml version="1.0" encoding="UTF-8" standalone="no"?>
<svg
   xmlns:dc="http://purl.org/dc/elements/1.1/"
   xmlns:cc="http://creativecommons.org/ns#"
   xmlns:rdf="http://www.w3.org/1999/02/22-rdf-syntax-ns#"
   xmlns:svg="http://www.w3.org/2000/svg"
   xmlns="http://www.w3.org/2000/svg"
   xmlns:sodipodi="http://sodipodi.sourceforge.net/DTD/sodipodi-0.dtd"
   xmlns:inkscape="http://www.inkscape.org/namespaces/inkscape"
   width="163.20383mm"
   height="102.34966mm"
   viewBox="0 0 163.20383 102.34966"
   version="1.1"
   id="svg8"
   inkscape:version="1.0.1 (3bc2e813f5, 2020-09-07)"
   sodipodi:docname="0703-ensaio triaxial argila ductil solucao.svg">
  <defs
     id="defs2">
    <clipPath
       id="clip0">
      <rect
         x="0"
         y="0"
         width="617"
         height="387"
         id="rect833" />
    </clipPath>
    <clipPath
       id="clip1">
      <rect
         x="0"
         y="0"
         width="615"
         height="385"
         id="rect836" />
    </clipPath>
    <clipPath
       id="clip2">
      <rect
         x="0"
         y="0"
         width="615"
         height="385"
         id="rect839" />
    </clipPath>
    <clipPath
       id="clip3">
      <rect
         x="0"
         y="0"
         width="615"
         height="385"
         id="rect842" />
    </clipPath>
    <clipPath
       id="clip4">
      <rect
         x="0"
         y="0"
         width="615"
         height="385"
         id="rect845" />
    </clipPath>
    <clipPath
       id="clip5">
      <rect
         x="0"
         y="0"
         width="615"
         height="385"
         id="rect848" />
    </clipPath>
    <clipPath
       id="clip6">
      <rect
         x="0"
         y="0"
         width="615"
         height="385"
         id="rect851" />
    </clipPath>
    <clipPath
       id="clip7">
      <rect
         x="0"
         y="0"
         width="615"
         height="385"
         id="rect854" />
    </clipPath>
    <clipPath
       id="clip8">
      <rect
         x="75"
         y="73"
         width="515"
         height="251"
         id="rect857" />
    </clipPath>
    <clipPath
       id="clip9">
      <rect
         x="0"
         y="0"
         width="615"
         height="385"
         id="rect860" />
    </clipPath>
    <clipPath
       id="clip10">
      <rect
         x="0"
         y="0"
         width="615"
         height="385"
         id="rect863" />
    </clipPath>
    <clipPath
       id="clip11">
      <rect
         x="0"
         y="0"
         width="615"
         height="385"
         id="rect866" />
    </clipPath>
    <clipPath
       id="clip12">
      <rect
         x="0"
         y="0"
         width="615"
         height="385"
         id="rect869" />
    </clipPath>
    <clipPath
       id="clip13">
      <rect
         x="0"
         y="0"
         width="615"
         height="385"
         id="rect872" />
    </clipPath>
    <clipPath
       id="clip14">
      <rect
         x="0"
         y="0"
         width="615"
         height="385"
         id="rect875" />
    </clipPath>
    <clipPath
       id="clip15">
      <rect
         x="0"
         y="0"
         width="615"
         height="385"
         id="rect878" />
    </clipPath>
    <clipPath
       id="clip16">
      <rect
         x="0"
         y="0"
         width="615"
         height="385"
         id="rect881" />
    </clipPath>
    <clipPath
       id="clip17">
      <rect
         x="0"
         y="0"
         width="615"
         height="385"
         id="rect884" />
    </clipPath>
    <clipPath
       id="clip18">
      <rect
         x="0"
         y="0"
         width="615"
         height="385"
         id="rect887" />
    </clipPath>
    <clipPath
       id="clip19">
      <rect
         x="0"
         y="0"
         width="615"
         height="385"
         id="rect890" />
    </clipPath>
    <clipPath
       id="clip20">
      <rect
         x="0"
         y="0"
         width="615"
         height="385"
         id="rect893" />
    </clipPath>
    <clipPath
       id="clip21">
      <rect
         x="0"
         y="0"
         width="615"
         height="385"
         id="rect896" />
    </clipPath>
    <clipPath
       id="clip22">
      <rect
         x="0"
         y="0"
         width="615"
         height="385"
         id="rect899" />
    </clipPath>
    <clipPath
       id="clip23">
      <rect
         x="0"
         y="0"
         width="615"
         height="385"
         id="rect902" />
    </clipPath>
    <clipPath
       id="clip24">
      <rect
         x="0"
         y="0"
         width="615"
         height="385"
         id="rect905" />
    </clipPath>
    <clipPath
       id="clip25">
      <rect
         x="0"
         y="0"
         width="615"
         height="385"
         id="rect908" />
    </clipPath>
    <clipPath
       id="clip26">
      <rect
         x="0"
         y="0"
         width="615"
         height="385"
         id="rect911" />
    </clipPath>
    <clipPath
       id="clip27">
      <rect
         x="0"
         y="0"
         width="615"
         height="385"
         id="rect914" />
    </clipPath>
    <clipPath
       id="clip28">
      <rect
         x="0"
         y="0"
         width="615"
         height="385"
         id="rect917" />
    </clipPath>
    <clipPath
       id="clip29">
      <rect
         x="0"
         y="0"
         width="615"
         height="385"
         id="rect920" />
    </clipPath>
  </defs>
  <sodipodi:namedview
     id="base"
     pagecolor="#ffffff"
     bordercolor="#666666"
     borderopacity="1.0"
     inkscape:pageopacity="0.0"
     inkscape:pageshadow="2"
     inkscape:zoom="1.260032"
     inkscape:cx="312.27781"
     inkscape:cy="251.71573"
     inkscape:document-units="mm"
     inkscape:current-layer="g1029"
     inkscape:document-rotation="0"
     showgrid="false"
     inkscape:window-width="1618"
     inkscape:window-height="1040"
     inkscape:window-x="191"
     inkscape:window-y="100"
     inkscape:window-maximized="0" />
  <metadata
     id="metadata5">
    <rdf:RDF>
      <cc:Work
         rdf:about="">
        <dc:format>image/svg+xml</dc:format>
        <dc:type
           rdf:resource="http://purl.org/dc/dcmitype/StillImage" />
        <dc:title></dc:title>
      </cc:Work>
    </rdf:RDF>
  </metadata>
  <g
     inkscape:label="Layer 1"
     inkscape:groupmode="layer"
     id="layer1"
     transform="translate(-40.86237,6.5736423)">
    <g
       clip-path="url(#clip0)"
       id="g1045"
       transform="matrix(0.26458333,0,0,0.26458333,40.86237,-6.5736423)">
      <rect
         x="0"
         y="0"
         width="616"
         height="386"
         fill="#ffffff"
         id="rect925" />
      <g
         clip-path="url(#clip1)"
         id="g929">
        <rect
           x="75"
           y="74"
           width="514"
           height="250"
           fill="#ffffff"
           id="rect927" />
      </g>
      <g
         clip-path="url(#clip2)"
         id="g933">
        <path
           d="M 75.5001,73.5001 H 589.5 M 75.5001,104.5 H 589.5 m -513.9999,32 H 589.5 m -513.9999,31 H 589.5 m -513.9999,31 H 589.5 m -513.9999,31 H 589.5 m -513.9999,32 H 589.5 m -513.9999,31 H 589.5"
           stroke="#898989"
           stroke-width="0.666667"
           stroke-linejoin="round"
           stroke-miterlimit="10"
           fill="none"
           id="path931" />
      </g>
      <g
         clip-path="url(#clip3)"
         id="g937">
        <path
           d="M 160.5,73.5001 V 323.5 m 86,-249.9999 V 323.5 m 86,-249.9999 V 323.5 m 85,-249.9999 V 323.5 m 86,-249.9999 V 323.5 m 86,-249.9999 V 323.5"
           stroke="#898989"
           stroke-width="0.666667"
           stroke-linejoin="round"
           stroke-miterlimit="10"
           fill="none"
           id="path935" />
      </g>
      <g
         clip-path="url(#clip4)"
         id="g941">
        <path
           d="M 75.5001,73.5001 75.5002,323.5"
           stroke="#000000"
           stroke-width="0.666667"
           stroke-linejoin="round"
           stroke-miterlimit="10"
           fill="none"
           fill-rule="evenodd"
           id="path939" />
      </g>
      <g
         clip-path="url(#clip5)"
         id="g945">
        <path
           d="m 71.5001,73.5001 h 4 m -4,30.9999 h 4 m -4,32 h 4 m -4,31 h 4 m -4,31 h 4 m -4,31 h 4 m -4,32 h 4 m -4,31 h 4 m -4,31 h 4"
           stroke="#000000"
           stroke-width="0.666667"
           stroke-linejoin="round"
           stroke-miterlimit="10"
           fill="none"
           id="path943" />
      </g>
      <g
         clip-path="url(#clip6)"
         id="g949">
        <path
           d="M 75.5001,323.5 H 589.5"
           stroke="#000000"
           stroke-width="0.666667"
           stroke-linejoin="round"
           stroke-miterlimit="10"
           fill="none"
           fill-rule="evenodd"
           id="path947" />
      </g>
      <g
         clip-path="url(#clip7)"
         id="g953">
        <path
           d="m 75.5001,319.5 v 4 m 84.9999,-4 v 4 m 86,-4 v 4 m 86,-4 v 4 m 85,-4 v 4 m 86,-4 v 4 m 86,-4 v 4"
           stroke="#000000"
           stroke-width="0.666667"
           stroke-linejoin="round"
           stroke-miterlimit="10"
           fill="none"
           id="path951" />
      </g>
      <g
         clip-path="url(#clip8)"
         id="g957">
        <path
           d="m 75.5001,323.455 c 0.0142,0 0.0248,0 0.0427,0 0.0179,0 0.0375,0 0.0643,0 0.0268,0 0.065,0 0.0963,0 0.0311,0 0.0606,0 0.091,0 3e-4,0 0.083,0.045 0.0909,0 0.7278,-4.203 2.8508,-16.813 4.2762,-25.219 1.4254,-8.407 2.85,-16.809 4.2761,-25.219 1.426,-8.411 2.8535,-18.538 4.2804,-25.245 1.4268,-6.706 2.8536,-11.503 4.2805,-14.994 1.3875,-3.394 2.8929,-4.072 4.2804,-5.951 1.4268,-1.933 2.8531,-3.743 4.2801,-5.644 1.427,-1.902 2.854,-3.838 4.281,-5.764 1.427,-1.926 2.853,-3.863 4.28,-5.795 1.427,-1.931 2.854,-3.863 4.281,-5.795 1.426,-1.931 2.853,-3.864 4.28,-5.794 1.427,-1.931 2.854,-3.858 4.28,-5.789 1.427,-1.93 2.854,-3.863 4.281,-5.795 1.427,-1.931 2.853,-3.864 4.28,-5.794 1.427,-1.931 2.854,-3.858 4.281,-5.789 1.427,-1.931 2.853,-3.864 4.28,-5.795 1.427,-1.93 2.854,-3.858 4.281,-5.788 1.426,-1.931 2.853,-4.805 4.28,-5.795 1.427,-0.99 2.854,-0.141 4.28,-0.144 1.427,-0.003 2.854,0.1 4.281,0.125 1.427,0.025 2.853,0.022 4.28,0.025 1.427,0.003 2.854,-0.005 4.281,-0.006 1.426,-0.001 2.853,0 4.28,0 1.427,0 2.854,0 4.281,0 1.426,0 2.853,0 4.28,0 1.427,0 2.854,0 4.28,0 1.427,0 2.854,0 4.281,0 1.427,0 2.853,0 4.28,0 1.427,0 2.854,0 4.281,0 1.426,0 2.853,0 4.28,0 1.427,0 2.854,0 4.281,0 1.426,0 2.853,0 4.28,0 1.427,0 2.854,0 4.28,0 1.427,0 2.854,0 4.281,0 1.427,0 2.853,0 4.28,0 1.427,0 2.854,0 4.281,0 1.426,0 2.853,0 4.28,0 1.427,0 2.854,0 4.281,0 1.426,0 2.853,0 4.28,0 1.427,0 2.854,0 4.28,0 1.427,0 2.854,0 4.281,0 1.427,0 2.853,0 4.28,0 1.427,0 2.854,0 4.281,0 1.426,0 2.853,0 4.28,0 1.427,0 2.854,0 4.281,0 1.426,0 2.853,0 4.28,0 1.427,0 2.854,0 4.28,0 1.427,0 2.854,0 4.281,0 1.427,0 2.853,0 4.28,0 1.427,0 2.854,0 4.281,0 1.426,0 2.853,0 4.28,0 1.427,0 2.854,0 4.281,0 1.426,0 2.853,0 4.28,0 1.427,0 2.854,0 4.28,0 1.427,0 2.854,0 4.281,0 1.427,0 2.853,0 4.28,0 1.427,0 2.854,0 4.281,0 1.427,0 2.853,-0.451 4.28,0 1.427,0.45 2.854,1.778 4.281,2.703 1.426,0.925 2.853,1.907 4.28,2.848 1.427,0.94 2.854,1.867 4.28,2.797 1.427,0.929 2.854,1.851 4.281,2.778 1.427,0.928 2.853,1.858 4.28,2.785 1.427,0.927 2.854,1.851 4.281,2.779 1.426,0.927 2.853,1.857 4.28,2.784 1.427,0.928 2.854,1.852 4.281,2.779 1.426,0.927 2.853,1.857 4.28,2.785 1.427,0.927 2.854,1.851 4.28,2.778 1.427,0.927 2.854,1.858 4.281,2.785 1.427,0.927 2.853,1.851 4.28,2.778 1.427,0.927 2.854,1.858 4.281,2.785 1.426,0.927 2.853,1.851 4.28,2.779 1.427,0.927 2.854,1.857 4.281,2.784 1.426,0.928 2.853,1.852 4.28,2.779 1.427,0.927 2.854,1.857 4.28,2.785 1.427,0.927 2.854,2.304 4.281,2.778 1.427,0.475 2.853,0.067 4.28,0.069 1.427,0.002 2.854,-0.045 4.281,-0.056 1.426,-0.012 2.853,-0.011 4.28,-0.013 1.427,-0.002 2.854,0 4.281,0 1.426,0 2.853,0 4.28,0 1.427,0 2.854,0 4.28,0 1.427,0 2.854,0 4.281,0 1.427,0 2.853,0 4.28,0 1.427,0 2.854,0 4.281,0 1.426,0 2.853,0 4.28,0 1.427,0 2.854,0 4.28,0 1.427,0 2.854,0 4.281,0 1.427,0 2.854,0 4.28,0 1.427,0 2.854,0 4.281,0 1.427,0 2.853,0 4.28,0 1.427,0 2.854,0 4.281,0 1.426,0 2.853,0 4.28,0 1.427,0 2.854,0 4.281,0 1.426,0 2.853,0 4.28,0 1.427,0 2.854,0 4.28,0 1.427,0 2.854,0 4.281,0 1.427,0 2.853,0 4.28,0 1.427,0 2.889,0 4.281,0 1.392,0 2.713,0 4.07,0 1.357,0 2.714,0 4.071,0"
           stroke="#000000"
           stroke-width="3.33333"
           stroke-linecap="round"
           stroke-linejoin="round"
           stroke-miterlimit="10"
           fill="none"
           id="path955" />
      </g>
      <g
         clip-path="url(#clip9)"
         id="g961">
        <text
           font-family="'Times New Roman', 'Times New Roman_MSFontService', sans-serif"
           font-weight="400"
           font-size="13px"
           transform="translate(36,78)"
           id="text959">-4,00</text>
      </g>
      <g
         clip-path="url(#clip10)"
         id="g965">
        <text
           font-family="'Times New Roman', 'Times New Roman_MSFontService', sans-serif"
           font-weight="400"
           font-size="13px"
           transform="translate(36,109)"
           id="text963">-3,50</text>
      </g>
      <g
         clip-path="url(#clip11)"
         id="g969">
        <text
           font-family="'Times New Roman', 'Times New Roman_MSFontService', sans-serif"
           font-weight="400"
           font-size="13px"
           transform="translate(36,140)"
           id="text967">-3,00</text>
      </g>
      <g
         clip-path="url(#clip12)"
         id="g973">
        <text
           font-family="'Times New Roman', 'Times New Roman_MSFontService', sans-serif"
           font-weight="400"
           font-size="13px"
           transform="translate(36,172)"
           id="text971">-2,50</text>
      </g>
      <g
         clip-path="url(#clip13)"
         id="g977">
        <text
           font-family="'Times New Roman', 'Times New Roman_MSFontService', sans-serif"
           font-weight="400"
           font-size="13px"
           transform="translate(36,203)"
           id="text975">-2,00</text>
      </g>
      <g
         clip-path="url(#clip14)"
         id="g981">
        <text
           font-family="'Times New Roman', 'Times New Roman_MSFontService', sans-serif"
           font-weight="400"
           font-size="13px"
           transform="translate(36,234)"
           id="text979">-1,50</text>
      </g>
      <g
         clip-path="url(#clip15)"
         id="g985">
        <text
           font-family="'Times New Roman', 'Times New Roman_MSFontService', sans-serif"
           font-weight="400"
           font-size="13px"
           transform="translate(36,265)"
           id="text983">-1,00</text>
      </g>
      <g
         clip-path="url(#clip16)"
         id="g989">
        <text
           font-family="'Times New Roman', 'Times New Roman_MSFontService', sans-serif"
           font-weight="400"
           font-size="13px"
           transform="translate(36,297)"
           id="text987">-0,50</text>
      </g>
      <g
         clip-path="url(#clip17)"
         id="g993">
        <text
           font-family="'Times New Roman', 'Times New Roman_MSFontService', sans-serif"
           font-weight="400"
           font-size="13px"
           transform="translate(40.44,328)"
           id="text991">0,00</text>
      </g>
      <g
         clip-path="url(#clip18)"
         id="g997">
        <text
           font-family="'Times New Roman', 'Times New Roman_MSFontService', sans-serif"
           font-weight="400"
           font-size="13px"
           transform="translate(63.45,343)"
           id="text995">0,00</text>
      </g>
      <g
         clip-path="url(#clip19)"
         id="g1001">
        <text
           font-family="'Times New Roman', 'Times New Roman_MSFontService', sans-serif"
           font-weight="400"
           font-size="13px"
           transform="translate(149.167,343)"
           id="text999">0,02</text>
      </g>
      <g
         clip-path="url(#clip20)"
         id="g1005">
        <text
           font-family="'Times New Roman', 'Times New Roman_MSFontService', sans-serif"
           font-weight="400"
           font-size="13px"
           transform="translate(234.883,343)"
           id="text1003">0,04</text>
      </g>
      <g
         clip-path="url(#clip21)"
         id="g1009">
        <text
           font-family="'Times New Roman', 'Times New Roman_MSFontService', sans-serif"
           font-weight="400"
           font-size="13px"
           transform="translate(320.6,343)"
           id="text1007">0,06</text>
      </g>
      <g
         clip-path="url(#clip22)"
         id="g1013">
        <text
           font-family="'Times New Roman', 'Times New Roman_MSFontService', sans-serif"
           font-weight="400"
           font-size="13px"
           transform="translate(406.317,343)"
           id="text1011">0,08</text>
      </g>
      <g
         clip-path="url(#clip23)"
         id="g1017">
        <text
           font-family="'Times New Roman', 'Times New Roman_MSFontService', sans-serif"
           font-weight="400"
           font-size="13px"
           transform="translate(492.034,343)"
           id="text1015">0,10</text>
      </g>
      <g
         clip-path="url(#clip24)"
         id="g1021">
        <text
           font-family="'Times New Roman', 'Times New Roman_MSFontService', sans-serif"
           font-weight="400"
           font-size="13px"
           transform="translate(577.75,343)"
           id="text1019">0,12</text>
      </g>
      <g
         clip-path="url(#clip25)"
         id="g1025">
        <text
           font-family="'Times New Roman', 'Times New Roman_MSFontService', sans-serif"
           font-weight="700"
           font-size="13px"
           transform="rotate(-90,181.33335,152.66665)"
           id="text1023">TENSÃO DO NÓ A NA DIREÇÃO Y (MPa)</text>
      </g>
      <g
         clip-path="url(#clip26)"
         id="g1029">
        <text
           font-family="'Times New Roman', 'Times New Roman_MSFontService', sans-serif"
           font-weight="700"
           font-size="13px"
           transform="translate(194.12,68)"
           id="text1027">DEFORMAÇÃO DO NÓ A NA DIREÇÃO Y</text>
      </g>
      <g
         clip-path="url(#clip27)"
         id="g1033">
        <text
           font-family="'Times New Roman', 'Times New Roman_MSFontService', sans-serif"
           font-weight="700"
           font-size="24px"
           transform="translate(157.868,32)"
           id="text1031">TENSÃO x DEFORMAÇÃO</text>
      </g>
      <g
         clip-path="url(#clip28)"
         id="g1037"
         transform="translate(-34)">
        <path
           d="m 287.5,366.5 h 26"
           stroke="#000000"
           stroke-width="3.33333"
           stroke-linecap="round"
           stroke-linejoin="round"
           stroke-miterlimit="10"
           fill="none"
           fill-rule="evenodd"
           id="path1035" />
      </g>
      <g
         clip-path="url(#clip29)"
         id="g1041"
         transform="translate(-34)">
        <text
           font-family="'Times New Roman', 'Times New Roman_MSFontService', sans-serif"
           font-weight="400"
           font-size="13px"
           transform="translate(315.855,370)"
           id="text1039">SY(3D,EPD,AXI)</text>
      </g>
      <rect
         x="0.50005299"
         y="0.50005299"
         width="616"
         height="386"
         stroke="#898989"
         stroke-width="0.666667"
         stroke-linejoin="round"
         stroke-miterlimit="10"
         fill="none"
         id="rect1043" />
    </g>
  </g>
</svg>
