<?xml version="1.0" encoding="UTF-8" standalone="no"?>
<svg
   xmlns:dc="http://purl.org/dc/elements/1.1/"
   xmlns:cc="http://creativecommons.org/ns#"
   xmlns:rdf="http://www.w3.org/1999/02/22-rdf-syntax-ns#"
   xmlns:svg="http://www.w3.org/2000/svg"
   xmlns="http://www.w3.org/2000/svg"
   xmlns:sodipodi="http://sodipodi.sourceforge.net/DTD/sodipodi-0.dtd"
   xmlns:inkscape="http://www.inkscape.org/namespaces/inkscape"
   width="140.22917mm"
   height="80.168747mm"
   viewBox="0 0 140.22917 80.168747"
   version="1.1"
   id="svg8"
   inkscape:version="1.0.1 (3bc2e813f5, 2020-09-07)"
   sodipodi:docname="0725-AMOLECIMENTO.svg">
  <defs
     id="defs2">
    <clipPath
       id="clip1-2">
      <rect
         x="1093"
         y="1240"
         width="530"
         height="302"
         id="rect1797" />
    </clipPath>
    <clipPath
       id="clip2-8">
      <rect
         x="1093"
         y="1240"
         width="530"
         height="302"
         id="rect1800" />
    </clipPath>
    <clipPath
       id="clip3-6">
      <rect
         x="1093"
         y="1240"
         width="530"
         height="302"
         id="rect1803" />
    </clipPath>
    <clipPath
       id="clip4-3">
      <rect
         x="1093"
         y="1240"
         width="530"
         height="302"
         id="rect1806" />
    </clipPath>
    <clipPath
       id="clip5-4">
      <rect
         x="1093"
         y="1240"
         width="530"
         height="302"
         id="rect1809" />
    </clipPath>
    <clipPath
       id="clip6-8">
      <rect
         x="1093"
         y="1240"
         width="530"
         height="302"
         id="rect1812" />
    </clipPath>
    <clipPath
       id="clip7-4">
      <rect
         x="1093"
         y="1240"
         width="530"
         height="302"
         id="rect1815" />
    </clipPath>
    <clipPath
       id="clip8-85">
      <rect
         x="1165"
         y="1304"
         width="436"
         height="179"
         id="rect1818" />
    </clipPath>
    <clipPath
       id="clip9-0">
      <rect
         x="1093"
         y="1240"
         width="530"
         height="302"
         id="rect1821" />
    </clipPath>
    <clipPath
       id="clip10-6">
      <rect
         x="1093"
         y="1240"
         width="530"
         height="302"
         id="rect1824" />
    </clipPath>
    <clipPath
       id="clip11-4">
      <rect
         x="1093"
         y="1240"
         width="530"
         height="302"
         id="rect1827" />
    </clipPath>
    <clipPath
       id="clip12-8">
      <rect
         x="1093"
         y="1240"
         width="530"
         height="302"
         id="rect1830" />
    </clipPath>
    <clipPath
       id="clip13-9">
      <rect
         x="1093"
         y="1240"
         width="530"
         height="302"
         id="rect1833" />
    </clipPath>
    <clipPath
       id="clip14-9">
      <rect
         x="1093"
         y="1240"
         width="530"
         height="302"
         id="rect1836" />
    </clipPath>
    <clipPath
       id="clip15-4">
      <rect
         x="1093"
         y="1240"
         width="530"
         height="302"
         id="rect1839" />
    </clipPath>
    <clipPath
       id="clip16-5">
      <rect
         x="1093"
         y="1240"
         width="530"
         height="302"
         id="rect1842" />
    </clipPath>
    <clipPath
       id="clip17-9">
      <rect
         x="1093"
         y="1240"
         width="530"
         height="302"
         id="rect1845" />
    </clipPath>
    <clipPath
       id="clip18-0">
      <rect
         x="1093"
         y="1240"
         width="530"
         height="302"
         id="rect1848" />
    </clipPath>
    <clipPath
       id="clip19-9">
      <rect
         x="1093"
         y="1240"
         width="530"
         height="302"
         id="rect1851" />
    </clipPath>
    <clipPath
       id="clip20-9">
      <rect
         x="1093"
         y="1240"
         width="530"
         height="302"
         id="rect1854" />
    </clipPath>
    <clipPath
       id="clip21-4">
      <rect
         x="1093"
         y="1240"
         width="530"
         height="302"
         id="rect1857" />
    </clipPath>
    <clipPath
       id="clip22-76">
      <rect
         x="1093"
         y="1240"
         width="530"
         height="302"
         id="rect1860" />
    </clipPath>
    <clipPath
       id="clip23-3">
      <rect
         x="1093"
         y="1240"
         width="530"
         height="302"
         id="rect1863" />
    </clipPath>
    <clipPath
       id="clip24-6">
      <rect
         x="1093"
         y="1240"
         width="530"
         height="302"
         id="rect1866" />
    </clipPath>
    <clipPath
       id="clip25-4">
      <rect
         x="1093"
         y="1240"
         width="530"
         height="302"
         id="rect1869" />
    </clipPath>
    <clipPath
       id="clip26-8">
      <rect
         x="1093"
         y="1240"
         width="530"
         height="302"
         id="rect1872" />
    </clipPath>
    <clipPath
       id="clip27-24">
      <rect
         x="1093"
         y="1240"
         width="530"
         height="302"
         id="rect1875" />
    </clipPath>
    <clipPath
       id="clip28-9">
      <rect
         x="1093"
         y="1240"
         width="530"
         height="302"
         id="rect1878" />
    </clipPath>
    <clipPath
       id="clip29-7">
      <rect
         x="1093"
         y="1240"
         width="530"
         height="302"
         id="rect1881" />
    </clipPath>
    <clipPath
       id="clip30-1">
      <rect
         x="1093"
         y="1240"
         width="530"
         height="302"
         id="rect1884" />
    </clipPath>
    <clipPath
       id="clip31-8">
      <rect
         x="1093"
         y="1240"
         width="530"
         height="302"
         id="rect1887" />
    </clipPath>
    <clipPath
       id="clip32-6">
      <rect
         x="1093"
         y="1240"
         width="530"
         height="302"
         id="rect1890" />
    </clipPath>
    <clipPath
       id="clip33-3">
      <rect
         x="1093"
         y="1240"
         width="530"
         height="302"
         id="rect1893" />
    </clipPath>
    <clipPath
       id="clip34-8">
      <rect
         x="1093"
         y="1240"
         width="530"
         height="302"
         id="rect1896" />
    </clipPath>
    <clipPath
       id="clip35-3">
      <rect
         x="1093"
         y="1240"
         width="530"
         height="302"
         id="rect1899" />
    </clipPath>
  </defs>
  <sodipodi:namedview
     id="base"
     pagecolor="#ffffff"
     bordercolor="#666666"
     borderopacity="1.0"
     inkscape:pageopacity="0.0"
     inkscape:pageshadow="2"
     inkscape:zoom="1.5345049"
     inkscape:cx="272.97659"
     inkscape:cy="179.62987"
     inkscape:document-units="mm"
     inkscape:current-layer="layer1"
     inkscape:document-rotation="0"
     showgrid="false"
     inkscape:window-width="1618"
     inkscape:window-height="1040"
     inkscape:window-x="168"
     inkscape:window-y="0"
     inkscape:window-maximized="0" />
  <metadata
     id="metadata5">
    <rdf:RDF>
      <cc:Work
         rdf:about="">
        <dc:format>image/svg+xml</dc:format>
        <dc:type
           rdf:resource="http://purl.org/dc/dcmitype/StillImage" />
        <dc:title></dc:title>
      </cc:Work>
    </rdf:RDF>
  </metadata>
  <g
     inkscape:label="Layer 1"
     inkscape:groupmode="layer"
     id="layer1"
     transform="translate(16.157646,13.621418)">
    <rect
       x="-16.157646"
       y="-13.621418"
       width="139.96458"
       height="79.904167"
       fill="#ffffff"
       id="rect1904"
       style="stroke-width:0.264583" />
    <g
       clip-path="url(#clip1-2)"
       id="g1908"
       transform="matrix(0.26458333,0,0,0.26458333,-305.61182,-341.70475)">
      <rect
         x="1165"
         y="1304"
         width="436"
         height="179"
         fill="#ffffff"
         id="rect1906" />
    </g>
    <g
       clip-path="url(#clip2-8)"
       id="g1912"
       transform="matrix(0.26458333,0,0,0.26458333,-305.61182,-341.70475)">
      <path
         d="m 1165.5,1304.5 h 435 m -435,22 h 435 m -435,22 h 435 m -435,23 h 435 m -435,22 h 435 m -435,22 h 435 m -435,23 h 435 m -435,22 h 435"
         stroke="#d9d9d9"
         stroke-linejoin="round"
         stroke-miterlimit="10"
         fill="none"
         id="path1910" />
    </g>
    <g
       clip-path="url(#clip3-6)"
       id="g1916"
       transform="matrix(0.26458333,0,0,0.26458333,-305.61182,-341.70475)">
      <path
         d="m 1208.5,1304.5 v 178 m 44,-178 v 178 m 43,-178 v 178 m 44,-178 v 178 m 43,-178 v 178 m 44,-178 v 178 m 44,-178 v 178 m 43,-178 v 178 m 44,-178 v 178 m 43,-178 v 178"
         stroke="#d9d9d9"
         stroke-linejoin="round"
         stroke-miterlimit="10"
         fill="none"
         id="path1914" />
    </g>
    <g
       clip-path="url(#clip4-3)"
       id="g1920"
       transform="matrix(0.26458333,0,0,0.26458333,-305.61182,-341.70475)">
      <path
         d="m 1165.5,1304.5 v 178"
         stroke="#000000"
         stroke-linejoin="round"
         stroke-miterlimit="10"
         fill="none"
         fill-rule="evenodd"
         id="path1918" />
    </g>
    <g
       clip-path="url(#clip5-4)"
       id="g1924"
       transform="matrix(0.26458333,0,0,0.26458333,-305.61182,-341.70475)">
      <path
         d="m 1161.5,1304.5 h 4 m -4,22 h 4 m -4,22 h 4 m -4,23 h 4 m -4,22 h 4 m -4,22 h 4 m -4,23 h 4 m -4,22 h 4 m -4,22 h 4"
         stroke="#000000"
         stroke-linejoin="round"
         stroke-miterlimit="10"
         fill="none"
         id="path1922" />
    </g>
    <g
       clip-path="url(#clip6-8)"
       id="g1928"
       transform="matrix(0.26458333,0,0,0.26458333,-305.61182,-341.70475)">
      <path
         d="m 1165.5,1482.5 h 435"
         stroke="#000000"
         stroke-linejoin="round"
         stroke-miterlimit="10"
         fill="none"
         fill-rule="evenodd"
         id="path1926" />
    </g>
    <g
       clip-path="url(#clip7-4)"
       id="g1932"
       transform="matrix(0.26458333,0,0,0.26458333,-305.61182,-341.70475)">
      <path
         d="m 1165.5,1482.5 v 4 m 43,-4 v 4 m 44,-4 v 4 m 43,-4 v 4 m 44,-4 v 4 m 43,-4 v 4 m 44,-4 v 4 m 44,-4 v 4 m 43,-4 v 4 m 44,-4 v 4 m 43,-4 v 4"
         stroke="#000000"
         stroke-linejoin="round"
         stroke-miterlimit="10"
         fill="none"
         id="path1930" />
    </g>
    <g
       clip-path="url(#clip8-85)"
       id="g1936"
       transform="matrix(0.26458333,0,0,0.26458333,-305.61182,-341.70475)">
      <path
         d="m 1165.5,1482.45 c 0.01,0 0.03,0 0.04,0 0.02,0 0.04,0 0.07,0 0.03,0 0.06,0 0.1,0 0.03,0 0.06,0 0.09,0 0,0 0.09,0.05 0.09,0 0.74,-5.56 2.9,-22.25 4.35,-33.38 1.45,-11.13 2.89,-22.25 4.34,-33.38 1.45,-11.14 2.9,-22.28 4.35,-33.42 1.45,-11.14 2.9,-24.69 4.35,-33.42 1.45,-8.72 2.9,-16.49 4.36,-18.92 1.45,-2.43 2.9,2.9 4.35,4.36 1.45,1.45 2.9,2.91 4.35,4.37 1.45,1.46 2.9,2.91 4.35,4.36 1.45,1.46 2.9,2.91 4.35,4.37 1.45,1.45 2.9,2.9 4.35,4.36 1.45,1.45 2.9,2.91 4.35,4.36 1.45,1.45 2.9,2.91 4.35,4.36 1.45,1.46 2.9,2.91 4.35,4.36 1.45,1.46 2.9,2.91 4.35,4.37 1.45,1.45 2.9,2.9 4.35,4.36 1.45,1.45 2.9,2.91 4.35,4.36 1.45,1.46 2.9,2.91 4.35,4.36 1.45,1.46 2.9,2.91 4.35,4.37 1.45,1.45 2.9,2.91 4.35,4.36 1.45,1.45 2.9,2.91 4.35,4.36 1.45,1.46 2.9,2.91 4.35,4.36 1.45,1.46 2.9,2.91 4.35,4.37 1.45,1.45 2.9,3.63 4.35,4.36 1.45,0.73 2.9,0 4.35,0 1.45,0 2.9,0 4.35,0 1.45,0 2.9,0 4.35,0 1.45,0 2.9,0 4.35,0 1.45,0 2.9,0 4.36,0 1.45,0 2.9,0 4.35,0 1.45,0 2.9,0 4.35,0 1.45,0 2.9,0 4.35,0 1.45,0 2.9,0 4.35,0 1.45,0 2.9,0 4.35,0 1.45,0 2.9,0 4.35,0 1.45,0 2.9,0 4.35,0 1.45,0 2.9,0 4.35,0 1.45,0 2.9,0 4.35,0 1.45,0 2.9,0 4.35,0 1.45,0 2.9,0 4.35,0 1.45,0 2.9,0 4.35,0 1.45,0 2.9,0 4.35,0 1.45,0 2.9,0 4.35,0 1.45,0 2.9,0 4.35,0 1.45,0 2.9,0 4.35,0 1.45,0 2.9,0 4.35,0 1.45,0 2.9,0 4.35,0 1.45,0 2.9,0 4.35,0 1.45,0 2.9,0 4.35,0 1.45,0 2.9,0 4.35,0 1.45,0 2.9,0 4.35,0 1.45,0 2.9,0 4.36,0 1.45,0 2.9,0 4.35,0 1.45,0 2.9,0 4.35,0 1.45,0 2.9,0 4.35,0 1.45,0 2.9,0 4.35,0 1.45,0 2.9,0 4.35,0 1.45,0 2.9,0 4.35,0 1.45,0 2.9,0 4.35,0 1.45,0 2.9,0 4.35,0 1.45,0 2.9,0 4.35,0 1.45,0 2.9,0 4.35,0 1.45,0 2.9,0 4.35,0 1.45,0 2.9,0 4.35,0 1.45,0 2.9,0 4.35,0 1.45,0 2.9,0 4.35,0 1.45,0 2.9,0 4.35,0 1.45,0 2.9,0 4.35,0 1.45,0 2.9,0 4.35,0 1.45,0 2.9,0 4.35,0 1.45,0 2.9,0 4.35,0 1.45,0 2.9,0 4.35,0 1.45,0 2.9,0 4.35,0 1.45,0 2.9,0 4.35,0 1.45,0 2.9,0 4.36,0 1.45,0 2.9,0 4.35,0 1.45,0 2.9,0 4.35,0 1.45,0 2.9,0 4.35,0 1.45,0 2.9,0 4.35,0 1.45,0 2.9,0 4.35,0 1.45,0 2.9,0 4.35,0 1.45,0 2.9,0 4.35,0 1.45,0 2.9,0 4.35,0 1.45,0 2.9,0 4.35,0 1.45,0 2.9,0 4.35,0 1.45,0 2.9,0 4.35,0 1.45,0 2.9,0 4.35,0 1.45,0 2.9,0 4.35,0 1.45,0 2.9,0 4.35,0 1.45,0 2.9,0 4.35,0 1.45,0 2.9,0 4.35,0 1.45,0 2.9,0 4.35,0 1.45,0 2.9,0 4.35,0 1.45,0 2.9,0 4.35,0 1.45,0 2.9,0 4.35,0 1.45,0 2.9,0 4.35,0 1.45,0 2.9,0 4.35,0 1.45,0 2.9,0 4.36,0 1.45,0 2.93,0 4.35,0 1.41,0 2.75,0 4.13,0 1.38,0 2.76,0 4.14,0"
         stroke="#000000"
         stroke-width="3.33333"
         stroke-linecap="round"
         stroke-linejoin="round"
         stroke-miterlimit="10"
         fill="none"
         id="path1934" />
    </g>
    <g
       clip-path="url(#clip9-0)"
       id="g1940"
       transform="matrix(0.26458333,0,0,0.26458333,-304.55348,-341.70475)">
      <text
         fill="#595959"
         font-family="'Times New Roman', 'Times New Roman_MSFontService', sans-serif"
         font-weight="400"
         font-size="12px"
         transform="translate(1129.91,1308)"
         id="text1938">8,00</text>
    </g>
    <g
       clip-path="url(#clip10-6)"
       id="g1944"
       transform="matrix(0.26458333,0,0,0.26458333,-304.55348,-341.70475)">
      <text
         fill="#595959"
         font-family="'Times New Roman', 'Times New Roman_MSFontService', sans-serif"
         font-weight="400"
         font-size="12px"
         transform="translate(1129.91,1331)"
         id="text1942">7,00</text>
    </g>
    <g
       clip-path="url(#clip11-4)"
       id="g1948"
       transform="matrix(0.26458333,0,0,0.26458333,-304.55348,-341.70475)">
      <text
         fill="#595959"
         font-family="'Times New Roman', 'Times New Roman_MSFontService', sans-serif"
         font-weight="400"
         font-size="12px"
         transform="translate(1129.91,1353)"
         id="text1946">6,00</text>
    </g>
    <g
       clip-path="url(#clip12-8)"
       id="g1952"
       transform="matrix(0.26458333,0,0,0.26458333,-304.55348,-341.70475)">
      <text
         fill="#595959"
         font-family="'Times New Roman', 'Times New Roman_MSFontService', sans-serif"
         font-weight="400"
         font-size="12px"
         transform="translate(1129.91,1375)"
         id="text1950">5,00</text>
    </g>
    <g
       clip-path="url(#clip13-9)"
       id="g1956"
       transform="matrix(0.26458333,0,0,0.26458333,-304.55348,-341.70475)">
      <text
         fill="#595959"
         font-family="'Times New Roman', 'Times New Roman_MSFontService', sans-serif"
         font-weight="400"
         font-size="12px"
         transform="translate(1129.91,1398)"
         id="text1954">4,00</text>
    </g>
    <g
       clip-path="url(#clip14-9)"
       id="g1960"
       transform="matrix(0.26458333,0,0,0.26458333,-304.55348,-341.70475)">
      <text
         fill="#595959"
         font-family="'Times New Roman', 'Times New Roman_MSFontService', sans-serif"
         font-weight="400"
         font-size="12px"
         transform="translate(1129.91,1420)"
         id="text1958">3,00</text>
    </g>
    <g
       clip-path="url(#clip15-4)"
       id="g1964"
       transform="matrix(0.26458333,0,0,0.26458333,-304.55348,-341.70475)">
      <text
         fill="#595959"
         font-family="'Times New Roman', 'Times New Roman_MSFontService', sans-serif"
         font-weight="400"
         font-size="12px"
         transform="translate(1129.91,1442)"
         id="text1962">2,00</text>
    </g>
    <g
       clip-path="url(#clip16-5)"
       id="g1968"
       transform="matrix(0.26458333,0,0,0.26458333,-304.55348,-341.70475)">
      <text
         fill="#595959"
         font-family="'Times New Roman', 'Times New Roman_MSFontService', sans-serif"
         font-weight="400"
         font-size="12px"
         transform="translate(1129.91,1464)"
         id="text1966">1,00</text>
    </g>
    <g
       clip-path="url(#clip17-9)"
       id="g1972"
       transform="matrix(0.26458333,0,0,0.26458333,-305.08265,-341.70475)">
      <text
         fill="#595959"
         font-family="'Times New Roman', 'Times New Roman_MSFontService', sans-serif"
         font-weight="400"
         font-size="12px"
         transform="translate(1133.91,1487)"
         id="text1970">0,00</text>
    </g>
    <g
       clip-path="url(#clip18-0)"
       id="g1976"
       transform="matrix(0.26458333,0,0,0.26458333,-305.61182,-341.70475)">
      <text
         fill="#595959"
         font-family="'Times New Roman', 'Times New Roman_MSFontService', sans-serif"
         font-weight="400"
         font-size="12px"
         transform="translate(1162.11,1501)"
         id="text1974">0</text>
    </g>
    <g
       clip-path="url(#clip19-9)"
       id="g1980"
       transform="matrix(0.26458333,0,0,0.26458333,-305.61182,-341.70475)">
      <text
         fill="#595959"
         font-family="'Times New Roman', 'Times New Roman_MSFontService', sans-serif"
         font-weight="400"
         font-size="12px"
         transform="translate(1198.19,1501)"
         id="text1978">0,01</text>
    </g>
    <g
       clip-path="url(#clip20-9)"
       id="g1984"
       transform="matrix(0.26458333,0,0,0.26458333,-305.61182,-341.70475)">
      <text
         fill="#595959"
         font-family="'Times New Roman', 'Times New Roman_MSFontService', sans-serif"
         font-weight="400"
         font-size="12px"
         transform="translate(1241.77,1501)"
         id="text1982">0,02</text>
    </g>
    <g
       clip-path="url(#clip21-4)"
       id="g1988"
       transform="matrix(0.26458333,0,0,0.26458333,-305.61182,-341.70475)">
      <text
         fill="#595959"
         font-family="'Times New Roman', 'Times New Roman_MSFontService', sans-serif"
         font-weight="400"
         font-size="12px"
         transform="translate(1285.34,1501)"
         id="text1986">0,03</text>
    </g>
    <g
       clip-path="url(#clip22-76)"
       id="g1992"
       transform="matrix(0.26458333,0,0,0.26458333,-305.61182,-341.70475)">
      <text
         fill="#595959"
         font-family="'Times New Roman', 'Times New Roman_MSFontService', sans-serif"
         font-weight="400"
         font-size="12px"
         transform="translate(1328.92,1501)"
         id="text1990">0,04</text>
    </g>
    <g
       clip-path="url(#clip23-3)"
       id="g1996"
       transform="matrix(0.26458333,0,0,0.26458333,-305.61182,-341.70475)">
      <text
         fill="#595959"
         font-family="'Times New Roman', 'Times New Roman_MSFontService', sans-serif"
         font-weight="400"
         font-size="12px"
         transform="translate(1372.5,1501)"
         id="text1994">0,05</text>
    </g>
    <g
       clip-path="url(#clip24-6)"
       id="g2000"
       transform="matrix(0.26458333,0,0,0.26458333,-305.61182,-341.70475)">
      <text
         fill="#595959"
         font-family="'Times New Roman', 'Times New Roman_MSFontService', sans-serif"
         font-weight="400"
         font-size="12px"
         transform="translate(1416.07,1501)"
         id="text1998">0,06</text>
    </g>
    <g
       clip-path="url(#clip25-4)"
       id="g2004"
       transform="matrix(0.26458333,0,0,0.26458333,-305.61182,-341.70475)">
      <text
         fill="#595959"
         font-family="'Times New Roman', 'Times New Roman_MSFontService', sans-serif"
         font-weight="400"
         font-size="12px"
         transform="translate(1459.65,1501)"
         id="text2002">0,07</text>
    </g>
    <g
       clip-path="url(#clip26-8)"
       id="g2008"
       transform="matrix(0.26458333,0,0,0.26458333,-305.61182,-341.70475)">
      <text
         fill="#595959"
         font-family="'Times New Roman', 'Times New Roman_MSFontService', sans-serif"
         font-weight="400"
         font-size="12px"
         transform="translate(1503.23,1501)"
         id="text2006">0,08</text>
    </g>
    <g
       clip-path="url(#clip27-24)"
       id="g2012"
       transform="matrix(0.26458333,0,0,0.26458333,-305.61182,-341.70475)">
      <text
         fill="#595959"
         font-family="'Times New Roman', 'Times New Roman_MSFontService', sans-serif"
         font-weight="400"
         font-size="12px"
         transform="translate(1546.8,1501)"
         id="text2010">0,09</text>
    </g>
    <g
       clip-path="url(#clip28-9)"
       id="g2016"
       transform="matrix(0.26458333,0,0,0.26458333,-305.61182,-341.70475)">
      <text
         fill="#595959"
         font-family="'Times New Roman', 'Times New Roman_MSFontService', sans-serif"
         font-weight="400"
         font-size="12px"
         transform="translate(1593.38,1501)"
         id="text2014">0,1</text>
    </g>
    <g
       clip-path="url(#clip29-7)"
       id="g2020"
       transform="matrix(0.26458333,0,0,0.26458333,-305.61182,-341.70475)">
      <text
         fill="#595959"
         font-family="'Times New Roman', 'Times New Roman_MSFontService', sans-serif"
         font-weight="400"
         font-size="13px"
         transform="rotate(-90)"
         id="text2018"
         x="-1410.9905"
         y="1123.7318">2<tspan
   style="font-style:italic;font-variant:normal;font-weight:bold;font-stretch:normal;font-family:'Times New Roman', 'Times New Roman_MSFontService', sans-serif;-inkscape-font-specification:'Times New Roman, Times New Roman_MSFontService, sans-serif Bold Italic'"
   id="tspan968">C</tspan> (MPa)</text>
    </g>
    <g
       clip-path="url(#clip30-1)"
       id="g2024"
       transform="matrix(0.26458333,0,0,0.26458333,-297.6593,-283.83285)">
      <text
         fill="#595959"
         font-family="'Times New Roman', 'Times New Roman_MSFontService', sans-serif"
         font-weight="400"
         font-size="13px"
         id="text2022"
         x="1323.8661"
         y="1298.2261"
         style="font-size:21.3333px">ε<tspan
   style="font-size:65%;baseline-shift:sub"
   id="tspan978">a</tspan></text>
    </g>
    <g
       clip-path="url(#clip31-8)"
       id="g2028"
       transform="matrix(0.26458333,0,0,0.26458333,-305.61182,-339.58807)">
      <text
         fill="#595959"
         font-family="'Times New Roman', 'Times New Roman_MSFontService', sans-serif"
         font-weight="400"
         font-size="16px"
         transform="translate(1173.81,1265)"
         id="text2026">TENSÃO x DEFORMAÇÃO</text>
    </g>
    <g
       clip-path="url(#clip32-6)"
       id="g2032"
       transform="matrix(0.26458333,0,0,0.26458333,-305.61182,-339.58807)">
      <text
         fill="#595959"
         font-family="'Times New Roman', 'Times New Roman_MSFontService', sans-serif"
         font-weight="400"
         font-size="16px"
         transform="translate(1368.93,1265)"
         id="text2030">-</text>
    </g>
    <g
       clip-path="url(#clip33-3)"
       id="g2036"
       transform="matrix(0.26458333,0,0,0.26458333,-305.61182,-339.58807)">
      <text
         fill="#595959"
         font-family="'Times New Roman', 'Times New Roman_MSFontService', sans-serif"
         font-weight="400"
         font-size="16px"
         transform="translate(1378.26,1265)"
         id="text2034">SOLUÇÃO NUMÉRICA</text>
    </g>
    <rect
       x="-16.025354"
       y="-13.489126"
       width="139.96458"
       height="79.904167"
       stroke="#bfbfbf"
       stroke-linejoin="round"
       stroke-miterlimit="10"
       fill="none"
       id="rect2046"
       style="stroke-width:0.264583" />
  </g>
</svg>
