<?xml version="1.0" encoding="UTF-8" standalone="no"?>
<svg
   xmlns:dc="http://purl.org/dc/elements/1.1/"
   xmlns:cc="http://creativecommons.org/ns#"
   xmlns:rdf="http://www.w3.org/1999/02/22-rdf-syntax-ns#"
   xmlns:svg="http://www.w3.org/2000/svg"
   xmlns="http://www.w3.org/2000/svg"
   xmlns:sodipodi="http://sodipodi.sourceforge.net/DTD/sodipodi-0.dtd"
   xmlns:inkscape="http://www.inkscape.org/namespaces/inkscape"
   width="139.92049mm"
   height="80.389236mm"
   viewBox="0 0 139.92049 80.389236"
   version="1.1"
   id="svg8"
   inkscape:version="1.0.1 (3bc2e813f5, 2020-09-07)"
   sodipodi:docname="0726-EP-EFEITO-AMOLECIMENTO.svg">
  <defs
     id="defs2">
    <clipPath
       id="clip0-8">
      <rect
         x="443"
         y="128"
         width="529"
         height="304"
         id="rect593" />
    </clipPath>
    <clipPath
       id="clip1-5">
      <rect
         x="443"
         y="128"
         width="527"
         height="302"
         id="rect596" />
    </clipPath>
    <clipPath
       id="clip2-4">
      <rect
         x="443"
         y="128"
         width="527"
         height="302"
         id="rect599" />
    </clipPath>
    <clipPath
       id="clip3-8">
      <rect
         x="443"
         y="128"
         width="527"
         height="302"
         id="rect602" />
    </clipPath>
    <clipPath
       id="clip4-6">
      <rect
         x="443"
         y="128"
         width="527"
         height="302"
         id="rect605" />
    </clipPath>
    <clipPath
       id="clip5-0">
      <rect
         x="443"
         y="128"
         width="527"
         height="302"
         id="rect608" />
    </clipPath>
    <clipPath
       id="clip6-6">
      <rect
         x="443"
         y="128"
         width="527"
         height="302"
         id="rect611" />
    </clipPath>
    <clipPath
       id="clip7-2">
      <rect
         x="515"
         y="173"
         width="331"
         height="198"
         id="rect614" />
    </clipPath>
    <clipPath
       id="clip8-8">
      <rect
         x="515"
         y="173"
         width="331"
         height="198"
         id="rect617" />
    </clipPath>
    <clipPath
       id="clip9-7">
      <rect
         x="443"
         y="128"
         width="527"
         height="302"
         id="rect620" />
    </clipPath>
    <clipPath
       id="clip10-2">
      <rect
         x="443"
         y="128"
         width="527"
         height="302"
         id="rect623" />
    </clipPath>
    <clipPath
       id="clip11-6">
      <rect
         x="443"
         y="128"
         width="527"
         height="302"
         id="rect626" />
    </clipPath>
    <clipPath
       id="clip12-7">
      <rect
         x="443"
         y="128"
         width="527"
         height="302"
         id="rect629" />
    </clipPath>
    <clipPath
       id="clip13-7">
      <rect
         x="443"
         y="128"
         width="527"
         height="302"
         id="rect632" />
    </clipPath>
    <clipPath
       id="clip14-2">
      <rect
         x="443"
         y="128"
         width="527"
         height="302"
         id="rect635" />
    </clipPath>
    <clipPath
       id="clip15-6">
      <rect
         x="443"
         y="128"
         width="527"
         height="302"
         id="rect638" />
    </clipPath>
    <clipPath
       id="clip16-7">
      <rect
         x="443"
         y="128"
         width="527"
         height="302"
         id="rect641" />
    </clipPath>
    <clipPath
       id="clip17-5">
      <rect
         x="443"
         y="128"
         width="527"
         height="302"
         id="rect644" />
    </clipPath>
    <clipPath
       id="clip18-5">
      <rect
         x="443"
         y="128"
         width="527"
         height="302"
         id="rect647" />
    </clipPath>
    <clipPath
       id="clip19-5">
      <rect
         x="443"
         y="128"
         width="527"
         height="302"
         id="rect650" />
    </clipPath>
    <clipPath
       id="clip20-3">
      <rect
         x="443"
         y="128"
         width="527"
         height="302"
         id="rect653" />
    </clipPath>
    <clipPath
       id="clip21-5">
      <rect
         x="443"
         y="128"
         width="527"
         height="302"
         id="rect656" />
    </clipPath>
    <clipPath
       id="clip22-7">
      <rect
         x="443"
         y="128"
         width="527"
         height="302"
         id="rect659" />
    </clipPath>
    <clipPath
       id="clip23-9">
      <rect
         x="443"
         y="128"
         width="527"
         height="302"
         id="rect662" />
    </clipPath>
    <clipPath
       id="clip24-2">
      <rect
         x="443"
         y="128"
         width="527"
         height="302"
         id="rect665" />
    </clipPath>
    <clipPath
       id="clip25-9">
      <rect
         x="443"
         y="128"
         width="527"
         height="302"
         id="rect668" />
    </clipPath>
    <clipPath
       id="clip26-1">
      <rect
         x="443"
         y="128"
         width="527"
         height="302"
         id="rect671" />
    </clipPath>
    <clipPath
       id="clip27-2">
      <rect
         x="443"
         y="128"
         width="527"
         height="302"
         id="rect674" />
    </clipPath>
    <clipPath
       id="clip28-0">
      <rect
         x="443"
         y="128"
         width="527"
         height="302"
         id="rect677" />
    </clipPath>
    <clipPath
       id="clip29-2">
      <rect
         x="443"
         y="128"
         width="527"
         height="302"
         id="rect680" />
    </clipPath>
    <clipPath
       id="clip30-0">
      <rect
         x="443"
         y="128"
         width="527"
         height="302"
         id="rect683" />
    </clipPath>
    <clipPath
       id="clip31-6">
      <rect
         x="443"
         y="128"
         width="527"
         height="302"
         id="rect686" />
    </clipPath>
    <clipPath
       id="clip32-9">
      <rect
         x="443"
         y="128"
         width="527"
         height="302"
         id="rect689" />
    </clipPath>
    <clipPath
       id="clip33-4">
      <rect
         x="443"
         y="128"
         width="527"
         height="302"
         id="rect692" />
    </clipPath>
    <clipPath
       id="clip34-5">
      <rect
         x="443"
         y="128"
         width="527"
         height="302"
         id="rect695" />
    </clipPath>
    <clipPath
       id="clip35-4">
      <rect
         x="443"
         y="128"
         width="527"
         height="302"
         id="rect698" />
    </clipPath>
    <clipPath
       id="clip36-2">
      <rect
         x="443"
         y="128"
         width="527"
         height="302"
         id="rect701" />
    </clipPath>
    <clipPath
       id="clip37-4">
      <rect
         x="443"
         y="128"
         width="527"
         height="302"
         id="rect704" />
    </clipPath>
    <clipPath
       id="clip38-7">
      <rect
         x="443"
         y="128"
         width="527"
         height="302"
         id="rect707" />
    </clipPath>
    <clipPath
       id="clip39-5">
      <rect
         x="443"
         y="128"
         width="527"
         height="302"
         id="rect710" />
    </clipPath>
    <clipPath
       id="clip40-1">
      <rect
         x="443"
         y="128"
         width="527"
         height="302"
         id="rect713" />
    </clipPath>
    <clipPath
       id="clip41-7">
      <rect
         x="443"
         y="128"
         width="527"
         height="302"
         id="rect716" />
    </clipPath>
    <clipPath
       id="clip42-7">
      <rect
         x="443"
         y="128"
         width="527"
         height="302"
         id="rect719" />
    </clipPath>
    <clipPath
       id="clip43-3">
      <rect
         x="443"
         y="128"
         width="527"
         height="302"
         id="rect722" />
    </clipPath>
    <clipPath
       id="clip44-8">
      <rect
         x="443"
         y="128"
         width="527"
         height="302"
         id="rect725" />
    </clipPath>
    <clipPath
       id="clip45-5">
      <rect
         x="443"
         y="128"
         width="527"
         height="302"
         id="rect728" />
    </clipPath>
    <clipPath
       id="clip66-4">
      <rect
         x="0"
         y="0"
         width="531"
         height="302"
         id="rect2214" />
    </clipPath>
    <clipPath
       id="clip67-2">
      <rect
         x="0"
         y="0"
         width="531"
         height="302"
         id="rect2217" />
    </clipPath>
    <clipPath
       id="clip68-1">
      <rect
         x="0"
         y="0"
         width="531"
         height="302"
         id="rect2220" />
    </clipPath>
    <clipPath
       id="clip69-6">
      <rect
         x="0"
         y="0"
         width="531"
         height="302"
         id="rect2223" />
    </clipPath>
    <clipPath
       id="clip70-4">
      <rect
         x="0"
         y="0"
         width="531"
         height="302"
         id="rect2226" />
    </clipPath>
    <clipPath
       id="clip71-6">
      <rect
         x="0"
         y="0"
         width="531"
         height="302"
         id="rect2229" />
    </clipPath>
    <clipPath
       id="clip72-4">
      <rect
         x="0"
         y="0"
         width="531"
         height="302"
         id="rect2232" />
    </clipPath>
    <clipPath
       id="clip73-7">
      <rect
         x="0"
         y="0"
         width="531"
         height="302"
         id="rect2235" />
    </clipPath>
    <clipPath
       id="clip74-7">
      <rect
         x="0"
         y="0"
         width="531"
         height="302"
         id="rect2238" />
    </clipPath>
    <clipPath
       id="clip75-9">
      <rect
         x="0"
         y="0"
         width="531"
         height="302"
         id="rect2241" />
    </clipPath>
    <clipPath
       id="clip76-3">
      <rect
         x="0"
         y="0"
         width="531"
         height="302"
         id="rect2244" />
    </clipPath>
    <clipPath
       id="clip77-2">
      <rect
         x="0"
         y="0"
         width="531"
         height="302"
         id="rect2247" />
    </clipPath>
  </defs>
  <sodipodi:namedview
     id="base"
     pagecolor="#ffffff"
     bordercolor="#666666"
     borderopacity="1.0"
     inkscape:pageopacity="0.0"
     inkscape:pageshadow="2"
     inkscape:zoom="1.7084514"
     inkscape:cx="258.03409"
     inkscape:cy="206.12732"
     inkscape:document-units="mm"
     inkscape:current-layer="layer1"
     inkscape:document-rotation="0"
     showgrid="false"
     inkscape:window-width="1618"
     inkscape:window-height="1040"
     inkscape:window-x="26"
     inkscape:window-y="0"
     inkscape:window-maximized="0" />
  <metadata
     id="metadata5">
    <rdf:RDF>
      <cc:Work
         rdf:about="">
        <dc:format>image/svg+xml</dc:format>
        <dc:type
           rdf:resource="http://purl.org/dc/dcmitype/StillImage" />
        <dc:title></dc:title>
      </cc:Work>
    </rdf:RDF>
  </metadata>
  <g
     inkscape:label="Layer 1"
     inkscape:groupmode="layer"
     id="layer1"
     transform="translate(-60.81952,-5.9184772)">
    <g
       clip-path="url(#clip0-8)"
       transform="matrix(0.26458333,0,0,0.26458333,-56.390895,-27.948189)"
       id="g917">
      <rect
         x="443"
         y="128"
         width="528"
         height="303"
         fill="#ffffff"
         id="rect733" />
      <g
         clip-path="url(#clip1-5)"
         id="g737">
        <rect
           x="515"
           y="174"
           width="331"
           height="196"
           fill="#ffffff"
           id="rect735" />
      </g>
      <g
         clip-path="url(#clip2-4)"
         id="g741">
        <path
           d="m 515.5,337.5 h 330 m -330,-33 h 330 m -330,-33 h 330 m -330,-32 h 330 m -330,-33 h 330 m -330,-33 h 330"
           stroke="#898989"
           stroke-width="0.666667"
           stroke-linejoin="round"
           stroke-miterlimit="10"
           fill="none"
           id="path739" />
      </g>
      <g
         clip-path="url(#clip3-8)"
         id="g745">
        <path
           d="M 0,0 1.04987e-4,197"
           stroke="#000000"
           stroke-width="0.666667"
           stroke-linejoin="round"
           stroke-miterlimit="10"
           fill="none"
           fill-rule="evenodd"
           transform="matrix(1,0,0,-1,515.5,370.5)"
           id="path743" />
      </g>
      <g
         clip-path="url(#clip4-6)"
         id="g749">
        <path
           d="m 510.5,370.5 h 5 m -5,-33 h 5 m -5,-33 h 5 m -5,-33 h 5 m -5,-32 h 5 m -5,-33 h 5 m -5,-33 h 5"
           stroke="#000000"
           stroke-width="0.666667"
           stroke-linejoin="round"
           stroke-miterlimit="10"
           fill="none"
           id="path747" />
      </g>
      <g
         clip-path="url(#clip5-0)"
         id="g753">
        <path
           d="m 515.5,370.5 h 330"
           stroke="#000000"
           stroke-width="0.666667"
           stroke-linejoin="round"
           stroke-miterlimit="10"
           fill="none"
           fill-rule="evenodd"
           id="path751" />
      </g>
      <g
         clip-path="url(#clip6-6)"
         id="g757">
        <path
           d="m 515.5,370.5 v 4 m 47,-4 v 4 m 47,-4 v 4 m 47,-4 v 4 m 48,-4 v 4 m 47,-4 v 4 m 47,-4 v 4 m 47,-4 v 4"
           stroke="#000000"
           stroke-width="0.666667"
           stroke-linejoin="round"
           stroke-miterlimit="10"
           fill="none"
           id="path755" />
      </g>
      <g
         clip-path="url(#clip7-2)"
         id="g761"
         style="stroke-width:1.00157481;stroke-miterlimit:4;stroke-dasharray:none;fill:none;fill-opacity:1;stroke:#ff0000;stroke-opacity:1">
        <path
           d="m 515.5,278.161 c 2.622,0.744 5.243,2.965 7.866,2.232 2.622,-0.733 5.245,-6.368 7.868,-6.63 2.622,-0.263 5.245,4.376 7.865,5.055 2.621,0.678 5.236,-1.029 7.859,-0.985 2.624,0.044 5.259,1.017 7.882,1.247 2.624,0.23 5.239,0.099 7.859,0.132 2.619,0.032 5.235,0.043 7.859,0.065 2.623,0.022 5.258,0.033 7.882,0.066 2.623,0.033 5.239,0.098 7.858,0.131 2.62,0.033 5.236,0.033 7.859,0.066 2.624,0.032 5.259,0.087 7.882,0.131 2.624,0.044 5.239,0.088 7.859,0.131 2.619,0.044 5.235,0.088 7.859,0.132 2.623,0.043 5.258,0.076 7.882,0.131 2.623,0.055 5.239,0.131 7.858,0.197 2.62,0.065 5.236,0.131 7.859,0.197 2.623,0.065 5.259,0.131 7.882,0.197 2.624,0.065 5.239,0.12 7.859,0.197 2.619,0.076 5.235,0.164 7.858,0.262 2.624,0.099 5.259,0.219 7.883,0.329 2.623,0.109 5.239,0.207 7.858,0.328 2.62,0.12 5.235,0.251 7.859,0.394 2.623,0.142 5.259,0.284 7.882,0.459 2.624,0.175 5.239,0.394 7.859,0.591 2.619,0.197 5.235,0.372 7.858,0.591 2.624,0.219 5.259,0.459 7.883,0.722 2.623,0.263 5.239,0.536 7.858,0.854 2.62,0.317 5.235,0.689 7.859,1.05 2.623,0.361 5.259,0.667 7.882,1.116 2.624,0.448 5.251,1.05 7.859,1.575 2.607,0.526 5.152,0.931 7.788,1.576 2.635,0.646 5.388,1.521 8.023,2.298 2.636,0.777 5.192,1.368 7.788,2.363 2.596,0.996 5.153,2.429 7.788,3.611 2.635,1.181 5.389,1.795 8.024,3.479 2.635,1.684 5.192,4.471 7.788,6.624 2.282,1.893 5.47,1.849 7.788,6.296 2.635,5.057 5.663,17.975 8.023,24.047 2.36,6.073 3.933,9.528 6.136,12.388 2.203,2.86 4.602,3.242 7.08,4.773 2.478,1.531 5.034,3.158 7.788,4.411 2.753,1.254 5.624,2.198 8.732,3.109 3.107,0.91 6.411,1.712 9.911,2.355 3.501,0.642 7.159,1.084 11.092,1.499 3.933,0.415 8.103,0.731 12.508,0.993 4.405,0.261 9.007,0.417 13.924,0.576 4.916,0.159 10.029,0.281 15.575,0.379 5.546,0.099 11.485,0.152 17.7,0.213 6.214,0.061 12.626,0.113 19.587,0.152 6.962,0.038 14.357,0.055 22.184,0.079 7.827,0.025 16.008,0.052 24.779,0.069 8.769,0.017 18.019,0.019 27.849,0.034 9.83,0.014 20.77,0.035 31.15,0.052"
           stroke="#00b0f0"
           stroke-width="1.33333"
           stroke-linecap="round"
           stroke-linejoin="round"
           stroke-miterlimit="10"
           stroke-dasharray="4, 5.33333"
           fill="none"
           id="path759"
           style="stroke-width:1.00157481;stroke-miterlimit:4;stroke-dasharray:none;fill:none;fill-opacity:1;stroke:#ff0000;stroke-opacity:1" />
      </g>
      <g
         clip-path="url(#clip8-8)"
         id="g765">
        <path
           d="m 515.5,242.617 c 2.622,2.846 5.243,9.996 7.866,8.54 2.622,-1.456 5.245,-15.898 7.868,-17.277 2.622,-1.38 5.245,7.708 7.865,9 2.621,1.292 5.236,-1.49 7.859,-1.249 2.624,0.241 5.259,2.256 7.882,2.694 2.624,0.438 5.239,-0.154 7.859,-0.066 2.619,0.088 5.235,0.526 7.859,0.591 2.623,0.066 5.258,-0.35 7.882,-0.197 2.623,0.153 5.239,0.975 7.858,1.117 2.62,0.142 5.236,-0.241 7.859,-0.263 2.624,-0.022 5.259,0 7.882,0.132 2.624,0.131 5.239,0.613 7.859,0.657 2.619,0.043 5.235,-0.592 7.859,-0.395 2.623,0.197 5.258,1.303 7.882,1.577 2.623,0.274 5.239,-0.033 7.858,0.066 2.62,0.098 5.236,0.339 7.859,0.525 2.623,0.186 5.259,0.383 7.882,0.591 2.624,0.208 5.239,0.427 7.859,0.657 2.619,0.23 5.235,0.46 7.858,0.723 2.624,0.263 5.259,0.558 7.883,0.854 2.623,0.296 5.239,0.58 7.858,0.92 2.62,0.339 5.235,0.733 7.859,1.116 2.623,0.384 5.259,0.767 7.882,1.183 2.624,0.416 5.239,0.854 7.859,1.314 2.619,0.46 5.235,0.93 7.858,1.445 2.624,0.515 5.259,1.073 7.883,1.642 2.623,0.57 5.239,1.128 7.858,1.774 2.62,0.646 5.235,1.39 7.859,2.102 2.623,0.712 5.259,1.358 7.882,2.168 2.624,0.81 5.251,1.763 7.859,2.693 2.607,0.931 5.152,1.796 7.788,2.891 2.635,1.095 5.388,2.463 8.023,3.679 2.636,1.215 5.192,2.135 7.788,3.613 2.596,1.478 5.153,3.514 7.788,5.255 2.635,1.741 5.389,2.901 8.024,5.19 2.635,2.288 5.192,5.708 7.788,8.54 2.483,2.709 5.266,3.279 7.788,8.448 2.635,5.403 5.663,17.13 8.023,23.971 2.36,6.841 3.933,13.184 6.136,17.073 2.203,3.889 4.602,4.25 7.08,6.261 2.478,2.011 5.034,4.106 7.788,5.807 2.753,1.701 5.624,3.165 8.732,4.401 3.107,1.237 6.411,2.18 9.911,3.018 3.501,0.837 7.159,1.47 11.092,2.006 3.933,0.536 8.103,0.886 12.508,1.207 4.405,0.322 9.007,0.528 13.924,0.722 4.916,0.193 10.029,0.322 15.575,0.44 5.546,0.117 11.485,0.192 17.7,0.264 6.214,0.072 12.626,0.124 19.587,0.169 6.962,0.046 14.357,0.074 22.184,0.103 7.827,0.029 16.008,0.053 24.779,0.074 8.769,0.021 18.019,0.032 27.849,0.051 9.83,0.02 20.77,0.044 31.15,0.066"
           stroke="#00b0f0"
           stroke-width="1.33333"
           stroke-linecap="round"
           stroke-linejoin="round"
           stroke-miterlimit="10"
           fill="none"
           id="path763" />
      </g>
      <g
         clip-path="url(#clip9-7)"
         id="g769">
        <text
           font-family="Calibri, Calibri_MSFontService, sans-serif"
           font-weight="400"
           font-size="13px"
           transform="translate(479.077,374)"
           id="text767">0,00</text>
      </g>
      <g
         clip-path="url(#clip10-2)"
         id="g773">
        <text
           font-family="Calibri, Calibri_MSFontService, sans-serif"
           font-weight="400"
           font-size="13px"
           transform="translate(479.077,341)"
           id="text771">0,50</text>
      </g>
      <g
         clip-path="url(#clip11-6)"
         id="g777">
        <text
           font-family="Calibri, Calibri_MSFontService, sans-serif"
           font-weight="400"
           font-size="13px"
           transform="translate(479.077,309)"
           id="text775">1,00</text>
      </g>
      <g
         clip-path="url(#clip12-7)"
         id="g781">
        <text
           font-family="Calibri, Calibri_MSFontService, sans-serif"
           font-weight="400"
           font-size="13px"
           transform="translate(479.077,276)"
           id="text779">1,50</text>
      </g>
      <g
         clip-path="url(#clip13-7)"
         id="g785">
        <text
           font-family="Calibri, Calibri_MSFontService, sans-serif"
           font-weight="400"
           font-size="13px"
           transform="translate(479.077,243)"
           id="text783">2,00</text>
      </g>
      <g
         clip-path="url(#clip14-2)"
         id="g789">
        <text
           font-family="Calibri, Calibri_MSFontService, sans-serif"
           font-weight="400"
           font-size="13px"
           transform="translate(479.077,211)"
           id="text787">2,50</text>
      </g>
      <g
         clip-path="url(#clip15-6)"
         id="g793">
        <text
           font-family="Calibri, Calibri_MSFontService, sans-serif"
           font-weight="400"
           font-size="13px"
           transform="translate(479.077,178)"
           id="text791">3,00</text>
      </g>
      <g
         clip-path="url(#clip16-7)"
         id="g797">
        <text
           font-family="Calibri, Calibri_MSFontService, sans-serif"
           font-weight="400"
           font-size="13px"
           transform="translate(558.949,392)"
           id="text795">2</text>
      </g>
      <g
         clip-path="url(#clip17-5)"
         id="g801">
        <text
           font-family="Calibri, Calibri_MSFontService, sans-serif"
           font-weight="400"
           font-size="13px"
           transform="translate(606.186,392)"
           id="text799">4</text>
      </g>
      <g
         clip-path="url(#clip18-5)"
         id="g805">
        <text
           font-family="Calibri, Calibri_MSFontService, sans-serif"
           font-weight="400"
           font-size="13px"
           transform="translate(653.424,392)"
           id="text803">6</text>
      </g>
      <g
         clip-path="url(#clip19-5)"
         id="g809">
        <text
           font-family="Calibri, Calibri_MSFontService, sans-serif"
           font-weight="400"
           font-size="13px"
           transform="translate(700.661,392)"
           id="text807">8</text>
      </g>
      <g
         clip-path="url(#clip20-3)"
         id="g813">
        <text
           font-family="Calibri, Calibri_MSFontService, sans-serif"
           font-weight="400"
           font-size="13px"
           transform="translate(744.518,392)"
           id="text811">10</text>
      </g>
      <g
         clip-path="url(#clip21-5)"
         id="g817">
        <text
           font-family="Calibri, Calibri_MSFontService, sans-serif"
           font-weight="400"
           font-size="13px"
           transform="translate(791.756,392)"
           id="text815">12</text>
      </g>
      <g
         clip-path="url(#clip22-7)"
         id="g821">
        <text
           font-family="Calibri, Calibri_MSFontService, sans-serif"
           font-weight="400"
           font-size="13px"
           transform="translate(838.993,392)"
           id="text819">14</text>
      </g>
      <g
         clip-path="url(#clip35-4)"
         id="g873">
        <text
           font-family="'Times New Roman', 'Times New Roman_MSFontService', sans-serif"
           font-style="italic"
           font-weight="400"
           font-size="13px"
           transform="translate(670.052,411)"
           id="text871">y</text>
      </g>
      <g
         clip-path="url(#clip36-2)"
         id="g877">
        <text
           font-family="'Times New Roman', 'Times New Roman_MSFontService', sans-serif"
           font-weight="400"
           font-size="13px"
           transform="translate(675.972,411)"
           id="text875">/</text>
      </g>
      <g
         clip-path="url(#clip37-4)"
         id="g881">
        <text
           font-family="'Times New Roman', 'Times New Roman_MSFontService', sans-serif"
           font-style="italic"
           font-weight="400"
           font-size="13px"
           transform="translate(679.679,411)"
           id="text879">R</text>
      </g>
      <g
         clip-path="url(#clip38-7)"
         id="g885">
        <text
           font-family="'Times New Roman', 'Times New Roman_MSFontService', sans-serif"
           font-style="italic"
           font-weight="400"
           font-size="11px"
           transform="translate(687.826,411)"
           id="text883">i</text>
      </g>
      <g
         clip-path="url(#clip39-5)"
         id="g889">
        <text
           font-family="'Times New Roman', 'Times New Roman_MSFontService', sans-serif"
           font-weight="700"
           font-size="16px"
           transform="translate(575.738,153)"
           id="text887">EP</text>
      </g>
      <g
         clip-path="url(#clip40-1)"
         id="g893">
        <text
           font-family="'Times New Roman', 'Times New Roman_MSFontService', sans-serif"
           font-weight="700"
           font-size="16px"
           transform="translate(599.305,153)"
           id="text891">-</text>
      </g>
      <g
         clip-path="url(#clip41-7)"
         id="g897">
        <text
           font-family="'Times New Roman', 'Times New Roman_MSFontService', sans-serif"
           font-weight="700"
           font-size="16px"
           transform="translate(608.632,153)"
           id="text895">EFEITO DO AMOLECIMENTO</text>
      </g>
      <g
         clip-path="url(#clip42-7)"
         id="g901"
         style="stroke-width:1.00157481;stroke-miterlimit:4;stroke-dasharray:none;stroke:#ff0000;stroke-opacity:1">
        <path
           d="m 874.5,282.5 h 33"
           stroke="#00b0f0"
           stroke-width="1.33333"
           stroke-linecap="round"
           stroke-linejoin="round"
           stroke-miterlimit="10"
           stroke-dasharray="4, 5.33333"
           fill="none"
           fill-rule="evenodd"
           id="path899"
           style="stroke-width:1.00157481;stroke-miterlimit:4;stroke-dasharray:none;stroke:#ff0000;stroke-opacity:1" />
      </g>
      <g
         clip-path="url(#clip43-3)"
         id="g905"
         transform="translate(-0.36080429,23.452275)">
        <text
           font-family="Calibri, Calibri_MSFontService, sans-serif"
           font-weight="400"
           font-size="13px"
           transform="translate(911.68,287)"
           id="text903">C/AMOL</text>
      </g>
      <g
         clip-path="url(#clip44-8)"
         id="g909">
        <path
           d="m 874.5,306.5 h 33"
           stroke="#00b0f0"
           stroke-width="1.33333"
           stroke-linecap="round"
           stroke-linejoin="round"
           stroke-miterlimit="10"
           fill="none"
           fill-rule="evenodd"
           id="path907" />
      </g>
      <g
         clip-path="url(#clip45-5)"
         id="g913"
         transform="translate(0,-24.173884)">
        <text
           font-family="Calibri, Calibri_MSFontService, sans-serif"
           font-weight="400"
           font-size="13px"
           transform="translate(911.68,311)"
           id="text911">S/AMOL</text>
      </g>
      <rect
         x="443.5"
         y="128.5"
         width="528"
         height="303"
         stroke="#898989"
         stroke-width="0.666667"
         stroke-linejoin="round"
         stroke-miterlimit="10"
         fill="none"
         id="rect915" />
      <g
         clip-path="url(#clip66-4)"
         id="g2531"
         transform="translate(443.5,130.5)">
        <text
           font-family="'Times New Roman', 'Times New Roman_MSFontService', sans-serif"
           font-style="italic"
           font-weight="400"
           font-size="13px"
           transform="rotate(-90,106.83335,78.16665)"
           id="text2529">U<tspan
   style="font-size:65%;baseline-shift:sub"
   id="tspan1344">i</tspan></text>
      </g>
      <g
         clip-path="url(#clip67-2)"
         id="g2535"
         transform="translate(443.5,128.5)">
        <text
           font-family="'Times New Roman', 'Times New Roman_MSFontService', sans-serif"
           font-weight="400"
           font-size="13px"
           transform="rotate(-90,100.33335,71.66665)"
           id="text2533">=</text>
      </g>
      <g
         clip-path="url(#clip68-1)"
         id="g2539"
         transform="translate(443.5,128.5)">
        <text
           font-family="'Times New Roman', 'Times New Roman_MSFontService', sans-serif"
           font-weight="400"
           font-size="13px"
           transform="rotate(-90,94.83335,66.16665)"
           id="text2537">-</text>
      </g>
      <g
         clip-path="url(#clip69-6)"
         id="g2543"
         transform="translate(443.5,128.5)">
        <text
           font-family="'Times New Roman', 'Times New Roman_MSFontService', sans-serif"
           font-style="italic"
           font-weight="400"
           font-size="13px"
           transform="rotate(-90,92.33335,63.66665)"
           id="text2541">u</text>
      </g>
      <g
         clip-path="url(#clip70-4)"
         id="g2547"
         transform="translate(443.5,128.5)">
        <text
           font-family="'Times New Roman', 'Times New Roman_MSFontService', sans-serif"
           font-weight="400"
           font-size="13px"
           transform="rotate(-90,89.33335,60.66665)"
           id="text2545">(</text>
      </g>
      <g
         clip-path="url(#clip71-6)"
         id="g2551"
         transform="translate(443.5,128.5)">
        <text
           font-family="'Times New Roman', 'Times New Roman_MSFontService', sans-serif"
           font-style="italic"
           font-weight="400"
           font-size="13px"
           transform="rotate(-90,86.83335,58.16665)"
           id="text2549">r</text>
      </g>
      <g
         clip-path="url(#clip72-4)"
         id="g2555"
         transform="translate(443.5,128.5)">
        <text
           font-family="'Times New Roman', 'Times New Roman_MSFontService', sans-serif"
           font-weight="400"
           font-size="13px"
           transform="rotate(-90,84.33335,55.66665)"
           id="text2553">=</text>
      </g>
      <g
         clip-path="url(#clip73-7)"
         id="g2559"
         transform="translate(443.5,128.5)">
        <text
           font-family="'Times New Roman', 'Times New Roman_MSFontService', sans-serif"
           font-style="italic"
           font-weight="400"
           font-size="13px"
           transform="rotate(-90,80.83335,52.16665)"
           id="text2557">R</text>
      </g>
      <g
         clip-path="url(#clip74-7)"
         id="g2563"
         transform="translate(443.5,128.5)">
        <text
           font-family="'Times New Roman', 'Times New Roman_MSFontService', sans-serif"
           font-style="italic"
           font-weight="400"
           font-size="11px"
           transform="rotate(-90,76.33335,47.66665)"
           id="text2561">i</text>
      </g>
      <g
         clip-path="url(#clip75-9)"
         id="g2567"
         transform="translate(443.5,128.5)">
        <text
           font-family="'Times New Roman', 'Times New Roman_MSFontService', sans-serif"
           font-weight="400"
           font-size="13px"
           transform="rotate(-90,74.83335,46.16665)"
           id="text2565">)/</text>
      </g>
      <g
         clip-path="url(#clip76-3)"
         id="g2571"
         transform="translate(443.5,128.5)">
        <text
           font-family="'Times New Roman', 'Times New Roman_MSFontService', sans-serif"
           font-style="italic"
           font-weight="400"
           font-size="13px"
           transform="rotate(-90,70.83335,42.16665)"
           id="text2569">R</text>
      </g>
      <g
         clip-path="url(#clip77-2)"
         id="g2575"
         transform="translate(443.5,128.5)">
        <text
           font-family="'Times New Roman', 'Times New Roman_MSFontService', sans-serif"
           font-style="italic"
           font-weight="400"
           font-size="11px"
           transform="rotate(-90,66.83335,38.16665)"
           id="text2573">i</text>
      </g>
      <text
         xml:space="preserve"
         style="font-size:13.3333px;line-height:1.25;font-family:times;-inkscape-font-specification:times;letter-spacing:0px;stroke-width:0.999999"
         x="-227.6356"
         y="471.70642"
         id="text1171"
         transform="rotate(-90)"><tspan
           sodipodi:role="line"
           id="tspan1169"
           x="-227.6356"
           y="471.70642"
           style="stroke-width:0.999999">(%)</tspan></text>
    </g>
  </g>
</svg>
